%TF.GenerationSoftware,KiCad,Pcbnew,10.0.3*%
%TF.CreationDate,2026-06-18T07:53:20+05:30*%
%TF.ProjectId,StemToyTutorial,5374656d-546f-4795-9475-746f7269616c,rev?*%
%TF.SameCoordinates,Original*%
%TF.FileFunction,Copper,L2,Bot*%
%TF.FilePolarity,Positive*%
%FSLAX46Y46*%
G04 Gerber Fmt 4.6, Leading zero omitted, Abs format (unit mm)*
G04 Created by KiCad (PCBNEW 10.0.3) date 2026-06-18 07:53:20*
%MOMM*%
%LPD*%
G01*
G04 APERTURE LIST*
G04 Aperture macros list*
%AMRoundRect*
0 Rectangle with rounded corners*
0 $1 Rounding radius*
0 $2 $3 $4 $5 $6 $7 $8 $9 X,Y pos of 4 corners*
0 Add a 4 corners polygon primitive as box body*
4,1,4,$2,$3,$4,$5,$6,$7,$8,$9,$2,$3,0*
0 Add four circle primitives for the rounded corners*
1,1,$1+$1,$2,$3*
1,1,$1+$1,$4,$5*
1,1,$1+$1,$6,$7*
1,1,$1+$1,$8,$9*
0 Add four rect primitives between the rounded corners*
20,1,$1+$1,$2,$3,$4,$5,0*
20,1,$1+$1,$4,$5,$6,$7,0*
20,1,$1+$1,$6,$7,$8,$9,0*
20,1,$1+$1,$8,$9,$2,$3,0*%
G04 Aperture macros list end*
%TA.AperFunction,ComponentPad*%
%ADD10C,1.600000*%
%TD*%
%TA.AperFunction,ComponentPad*%
%ADD11C,2.000000*%
%TD*%
%TA.AperFunction,ComponentPad*%
%ADD12RoundRect,0.250000X-0.550000X-0.550000X0.550000X-0.550000X0.550000X0.550000X-0.550000X0.550000X0*%
%TD*%
%TA.AperFunction,ComponentPad*%
%ADD13C,1.700000*%
%TD*%
%TA.AperFunction,ComponentPad*%
%ADD14R,1.700000X1.700000*%
%TD*%
%TA.AperFunction,ViaPad*%
%ADD15C,0.600000*%
%TD*%
%TA.AperFunction,Conductor*%
%ADD16C,0.500000*%
%TD*%
%TA.AperFunction,Conductor*%
%ADD17C,0.300000*%
%TD*%
G04 APERTURE END LIST*
D10*
%TO.P,+ 100uF -,2*%
%TO.N,Net-(C2-Pad2)*%
X134000000Y-103000000D03*
%TO.P,+ 100uF -,1*%
%TO.N,/Out*%
X134000000Y-106500000D03*
%TD*%
%TO.P,10K,1*%
%TO.N,Net-(R2-Pad1)*%
X152000000Y-99120000D03*
%TO.P,10K,2*%
%TO.N,/Discharge*%
X152000000Y-83880000D03*
%TD*%
%TO.P,1K,1*%
%TO.N,VCC*%
X132880000Y-85500000D03*
%TO.P,1K,2*%
%TO.N,/Discharge*%
X148120000Y-85500000D03*
%TD*%
D11*
%TO.P,1nF,1*%
%TO.N,/Threshold*%
X135500000Y-99000000D03*
%TO.P,1nF,2*%
%TO.N,GND*%
X135500000Y-89000000D03*
%TD*%
D10*
%TO.P,IC 555,8,VCC_8*%
%TO.N,VCC*%
X148310000Y-90690000D03*
%TO.P,IC 555,7,DISCH_7*%
%TO.N,/Discharge*%
X148310000Y-93230000D03*
%TO.P,IC 555,6,THRES_6*%
%TO.N,/Threshold*%
X148310000Y-95770000D03*
%TO.P,IC 555,5,CONT_5*%
%TO.N,unconnected-(U1-CONT-Pad5)*%
X148310000Y-98310000D03*
%TO.P,IC 555,4,~{RST}_4*%
%TO.N,VCC*%
X140690000Y-98310000D03*
%TO.P,IC 555,3,OUT_3*%
%TO.N,/Out*%
X140690000Y-95770000D03*
%TO.P,IC 555,2,TRIG_2*%
%TO.N,/Threshold*%
X140690000Y-93230000D03*
D12*
%TO.P,IC 555,1,GND_1*%
%TO.N,GND*%
X140690000Y-90690000D03*
%TD*%
D13*
%TO.P,OUT,2,2_2*%
%TO.N,/Threshold*%
X149730000Y-103000000D03*
D14*
%TO.P,OUT,1,1_1*%
%TO.N,Net-(R2-Pad1)*%
X152270000Y-103000000D03*
%TD*%
D13*
%TO.P,+ BAT -,2,2_2*%
%TO.N,VCC*%
X130500000Y-95270000D03*
D14*
%TO.P,+ BAT -,1,1_1*%
%TO.N,GND*%
X130500000Y-92730000D03*
%TD*%
D13*
%TO.P,+ BUZZ -,2,2_2*%
%TO.N,GND*%
X144500000Y-103000000D03*
D14*
%TO.P,+ BUZZ -,1,1_1*%
%TO.N,Net-(C2-Pad2)*%
X141960000Y-103000000D03*
%TD*%
D15*
%TO.N,GND*%
X143000000Y-94000000D03*
%TD*%
%TO.N,GND*%
D16*
X144500000Y-95500000D02*
X143000000Y-94000000D01*
X144500000Y-103000000D02*
X144500000Y-95500000D01*
%TO.N,/Threshold*%
D17*
X140690000Y-93230000D02*
X145770000Y-93230000D01*
X145770000Y-93230000D02*
X148310000Y-95770000D01*
X140690000Y-93810000D02*
X140690000Y-93230000D01*
X135500000Y-99000000D02*
X140690000Y-93810000D01*
%TO.N,/Out*%
X139540000Y-100960000D02*
X139540000Y-96920000D01*
X139540000Y-96920000D02*
X140690000Y-95770000D01*
X134000000Y-106500000D02*
X139540000Y-100960000D01*
%TO.N,VCC*%
D16*
X132880000Y-92890000D02*
X130500000Y-95270000D01*
X132880000Y-85500000D02*
X132880000Y-92890000D01*
%TD*%
%TA.AperFunction,Conductor*%
%TO.N,GND*%
G36*
X154942539Y-82020185D02*
G01*
X154988294Y-82072989D01*
X154999500Y-82124500D01*
X154999500Y-108875500D01*
X154979815Y-108942539D01*
X154927011Y-108988294D01*
X154875500Y-108999500D01*
X127624500Y-108999500D01*
X127557461Y-108979815D01*
X127511706Y-108927011D01*
X127500500Y-108875500D01*
X127500500Y-106397648D01*
X132699500Y-106397648D01*
X132699500Y-106602351D01*
X132731522Y-106804534D01*
X132794781Y-106999223D01*
X132887715Y-107181613D01*
X133008028Y-107347213D01*
X133152786Y-107491971D01*
X133307749Y-107604556D01*
X133318390Y-107612287D01*
X133434607Y-107671503D01*
X133500776Y-107705218D01*
X133500778Y-107705218D01*
X133500781Y-107705220D01*
X133605137Y-107739127D01*
X133695465Y-107768477D01*
X133796557Y-107784488D01*
X133897648Y-107800500D01*
X133897649Y-107800500D01*
X134102351Y-107800500D01*
X134102352Y-107800500D01*
X134304534Y-107768477D01*
X134499219Y-107705220D01*
X134681610Y-107612287D01*
X134774590Y-107544732D01*
X134847213Y-107491971D01*
X134847215Y-107491968D01*
X134847219Y-107491966D01*
X134991966Y-107347219D01*
X134991968Y-107347215D01*
X134991971Y-107347213D01*
X135044732Y-107274590D01*
X135112287Y-107181610D01*
X135205220Y-106999219D01*
X135268477Y-106804534D01*
X135300500Y-106602352D01*
X135300500Y-106397648D01*
X135272345Y-106219886D01*
X135281300Y-106150593D01*
X135307134Y-106112810D01*
X138354119Y-103065826D01*
X139317811Y-102102135D01*
X140609500Y-102102135D01*
X140609500Y-103897870D01*
X140609501Y-103897876D01*
X140615908Y-103957483D01*
X140666202Y-104092328D01*
X140666206Y-104092335D01*
X140752452Y-104207544D01*
X140752455Y-104207547D01*
X140867664Y-104293793D01*
X140867671Y-104293797D01*
X141002517Y-104344091D01*
X141002516Y-104344091D01*
X141009444Y-104344835D01*
X141062127Y-104350500D01*
X142857872Y-104350499D01*
X142917483Y-104344091D01*
X143052331Y-104293796D01*
X143167546Y-104207546D01*
X143253796Y-104092331D01*
X143304091Y-103957483D01*
X143310500Y-103897873D01*
X143310499Y-103873979D01*
X143313330Y-103860963D01*
X143323940Y-103841525D01*
X143330179Y-103820275D01*
X143346803Y-103799643D01*
X143346808Y-103799636D01*
X143346811Y-103799634D01*
X143346818Y-103799626D01*
X144017037Y-103129408D01*
X144034075Y-103192993D01*
X144099901Y-103307007D01*
X144192993Y-103400099D01*
X144307007Y-103465925D01*
X144370590Y-103482962D01*
X143738282Y-104115269D01*
X143738282Y-104115270D01*
X143792449Y-104154624D01*
X143981782Y-104251095D01*
X144183870Y-104316757D01*
X144393754Y-104350000D01*
X144606246Y-104350000D01*
X144816127Y-104316757D01*
X144816130Y-104316757D01*
X145018217Y-104251095D01*
X145207554Y-104154622D01*
X145261716Y-104115270D01*
X145261717Y-104115270D01*
X144629408Y-103482962D01*
X144692993Y-103465925D01*
X144807007Y-103400099D01*
X144900099Y-103307007D01*
X144965925Y-103192993D01*
X144982962Y-103129408D01*
X145615270Y-103761717D01*
X145615270Y-103761716D01*
X145654622Y-103707554D01*
X145751095Y-103518217D01*
X145816757Y-103316130D01*
X145816757Y-103316127D01*
X145850000Y-103106246D01*
X145850000Y-102893753D01*
X145849994Y-102893713D01*
X148379500Y-102893713D01*
X148379500Y-103106286D01*
X148412753Y-103316239D01*
X148478444Y-103518414D01*
X148574951Y-103707820D01*
X148699890Y-103879786D01*
X148850213Y-104030109D01*
X149022179Y-104155048D01*
X149022181Y-104155049D01*
X149022184Y-104155051D01*
X149211588Y-104251557D01*
X149413757Y-104317246D01*
X149623713Y-104350500D01*
X149623714Y-104350500D01*
X149836286Y-104350500D01*
X149836287Y-104350500D01*
X150046243Y-104317246D01*
X150248412Y-104251557D01*
X150437816Y-104155051D01*
X150609792Y-104030104D01*
X150723329Y-103916566D01*
X150784648Y-103883084D01*
X150854340Y-103888068D01*
X150910274Y-103929939D01*
X150927189Y-103960917D01*
X150976202Y-104092328D01*
X150976206Y-104092335D01*
X151062452Y-104207544D01*
X151062455Y-104207547D01*
X151177664Y-104293793D01*
X151177671Y-104293797D01*
X151312517Y-104344091D01*
X151312516Y-104344091D01*
X151319444Y-104344835D01*
X151372127Y-104350500D01*
X153167872Y-104350499D01*
X153227483Y-104344091D01*
X153362331Y-104293796D01*
X153477546Y-104207546D01*
X153563796Y-104092331D01*
X153614091Y-103957483D01*
X153620500Y-103897873D01*
X153620499Y-102102128D01*
X153614091Y-102042517D01*
X153612810Y-102039083D01*
X153563797Y-101907671D01*
X153563793Y-101907664D01*
X153477547Y-101792455D01*
X153477544Y-101792452D01*
X153362335Y-101706206D01*
X153362328Y-101706202D01*
X153227482Y-101655908D01*
X153227483Y-101655908D01*
X153167883Y-101649501D01*
X153167881Y-101649500D01*
X153167873Y-101649500D01*
X153167864Y-101649500D01*
X151372129Y-101649500D01*
X151372123Y-101649501D01*
X151312516Y-101655908D01*
X151177671Y-101706202D01*
X151177664Y-101706206D01*
X151062455Y-101792452D01*
X151062452Y-101792455D01*
X150976206Y-101907664D01*
X150976203Y-101907669D01*
X150927189Y-102039083D01*
X150885317Y-102095016D01*
X150819853Y-102119433D01*
X150751580Y-102104581D01*
X150723326Y-102083430D01*
X150609786Y-101969890D01*
X150437820Y-101844951D01*
X150248414Y-101748444D01*
X150248413Y-101748443D01*
X150248412Y-101748443D01*
X150046243Y-101682754D01*
X150046241Y-101682753D01*
X150046240Y-101682753D01*
X149884957Y-101657208D01*
X149836287Y-101649500D01*
X149623713Y-101649500D01*
X149575042Y-101657208D01*
X149413760Y-101682753D01*
X149211585Y-101748444D01*
X149022179Y-101844951D01*
X148850213Y-101969890D01*
X148699890Y-102120213D01*
X148574951Y-102292179D01*
X148478444Y-102481585D01*
X148412753Y-102683760D01*
X148379500Y-102893713D01*
X145849994Y-102893713D01*
X145816757Y-102683872D01*
X145816757Y-102683869D01*
X145751095Y-102481782D01*
X145654624Y-102292449D01*
X145615270Y-102238282D01*
X145615269Y-102238282D01*
X144982962Y-102870590D01*
X144965925Y-102807007D01*
X144900099Y-102692993D01*
X144807007Y-102599901D01*
X144692993Y-102534075D01*
X144629409Y-102517037D01*
X145261716Y-101884728D01*
X145207550Y-101845375D01*
X145018217Y-101748904D01*
X144816129Y-101683242D01*
X144606246Y-101650000D01*
X144393754Y-101650000D01*
X144183872Y-101683242D01*
X144183869Y-101683242D01*
X143981782Y-101748904D01*
X143792439Y-101845380D01*
X143738282Y-101884727D01*
X143738282Y-101884728D01*
X144370591Y-102517037D01*
X144307007Y-102534075D01*
X144192993Y-102599901D01*
X144099901Y-102692993D01*
X144034075Y-102807007D01*
X144017037Y-102870591D01*
X143346818Y-102200372D01*
X143313333Y-102139049D01*
X143313330Y-102139036D01*
X143310499Y-102126015D01*
X143310499Y-102102128D01*
X143304091Y-102042517D01*
X143275926Y-101967002D01*
X143253798Y-101907673D01*
X143253793Y-101907664D01*
X143167547Y-101792455D01*
X143167544Y-101792452D01*
X143052335Y-101706206D01*
X143052328Y-101706202D01*
X142917482Y-101655908D01*
X142917483Y-101655908D01*
X142857883Y-101649501D01*
X142857881Y-101649500D01*
X142857873Y-101649500D01*
X142857864Y-101649500D01*
X141062129Y-101649500D01*
X141062123Y-101649501D01*
X141002516Y-101655908D01*
X140867671Y-101706202D01*
X140867664Y-101706206D01*
X140752455Y-101792452D01*
X140752452Y-101792455D01*
X140666206Y-101907664D01*
X140666202Y-101907671D01*
X140615908Y-102042517D01*
X140609501Y-102102116D01*
X140609501Y-102102123D01*
X140609500Y-102102135D01*
X139317811Y-102102135D01*
X139408821Y-102011125D01*
X140045273Y-101374672D01*
X140045276Y-101374669D01*
X140116465Y-101268127D01*
X140165501Y-101149744D01*
X140190500Y-101024069D01*
X140190500Y-99685800D01*
X140210185Y-99618761D01*
X140262989Y-99573006D01*
X140332147Y-99563062D01*
X140352820Y-99567870D01*
X140385458Y-99578475D01*
X140385461Y-99578475D01*
X140385466Y-99578477D01*
X140587648Y-99610500D01*
X140587649Y-99610500D01*
X140792351Y-99610500D01*
X140792352Y-99610500D01*
X140994534Y-99578477D01*
X141189219Y-99515220D01*
X141371610Y-99422287D01*
X141469222Y-99351368D01*
X141537213Y-99301971D01*
X141537215Y-99301968D01*
X141537219Y-99301966D01*
X141681966Y-99157219D01*
X141681968Y-99157215D01*
X141681971Y-99157213D01*
X141783369Y-99017648D01*
X141802287Y-98991610D01*
X141895220Y-98809219D01*
X141958477Y-98614534D01*
X141990500Y-98412352D01*
X141990500Y-98207648D01*
X141977889Y-98128028D01*
X141958477Y-98005465D01*
X141909745Y-97855485D01*
X141895220Y-97810781D01*
X141895218Y-97810778D01*
X141895218Y-97810776D01*
X141847261Y-97716657D01*
X141802287Y-97628390D01*
X141755029Y-97563344D01*
X141681971Y-97462786D01*
X141537213Y-97318028D01*
X141371614Y-97197715D01*
X141365006Y-97194348D01*
X141278917Y-97150483D01*
X141228123Y-97102511D01*
X141211328Y-97034690D01*
X141233865Y-96968555D01*
X141278917Y-96929516D01*
X141371610Y-96882287D01*
X141460773Y-96817507D01*
X141537213Y-96761971D01*
X141537215Y-96761968D01*
X141537219Y-96761966D01*
X141681966Y-96617219D01*
X141681968Y-96617215D01*
X141681971Y-96617213D01*
X141751469Y-96521555D01*
X141802287Y-96451610D01*
X141895220Y-96269219D01*
X141958477Y-96074534D01*
X141990500Y-95872352D01*
X141990500Y-95667648D01*
X141958477Y-95465466D01*
X141895220Y-95270781D01*
X141895218Y-95270778D01*
X141895218Y-95270776D01*
X141840666Y-95163713D01*
X141802287Y-95088390D01*
X141737327Y-94998979D01*
X141681971Y-94922786D01*
X141537213Y-94778028D01*
X141371614Y-94657715D01*
X141365006Y-94654348D01*
X141278917Y-94610483D01*
X141228123Y-94562511D01*
X141211328Y-94494690D01*
X141233865Y-94428555D01*
X141278917Y-94389516D01*
X141371610Y-94342287D01*
X141462455Y-94276285D01*
X141537213Y-94221971D01*
X141537215Y-94221968D01*
X141537219Y-94221966D01*
X141681966Y-94077219D01*
X141787753Y-93931613D01*
X141843082Y-93888949D01*
X141888071Y-93880500D01*
X145449192Y-93880500D01*
X145516231Y-93900185D01*
X145536873Y-93916819D01*
X147002862Y-95382808D01*
X147036347Y-95444131D01*
X147037654Y-95489886D01*
X147009500Y-95667647D01*
X147009500Y-95872351D01*
X147041522Y-96074534D01*
X147104781Y-96269223D01*
X147168691Y-96394653D01*
X147184180Y-96425051D01*
X147197715Y-96451613D01*
X147318028Y-96617213D01*
X147462786Y-96761971D01*
X147617749Y-96874556D01*
X147628390Y-96882287D01*
X147719840Y-96928883D01*
X147721080Y-96929515D01*
X147771876Y-96977490D01*
X147788671Y-97045311D01*
X147766134Y-97111446D01*
X147721080Y-97150485D01*
X147628386Y-97197715D01*
X147462786Y-97318028D01*
X147318028Y-97462786D01*
X147197715Y-97628386D01*
X147104781Y-97810776D01*
X147041522Y-98005465D01*
X147009500Y-98207648D01*
X147009500Y-98412351D01*
X147041522Y-98614534D01*
X147104781Y-98809223D01*
X147197715Y-98991613D01*
X147318028Y-99157213D01*
X147462786Y-99301971D01*
X147617749Y-99414556D01*
X147628390Y-99422287D01*
X147744607Y-99481503D01*
X147810776Y-99515218D01*
X147810778Y-99515218D01*
X147810781Y-99515220D01*
X147915137Y-99549127D01*
X148005465Y-99578477D01*
X148106557Y-99594488D01*
X148207648Y-99610500D01*
X148207649Y-99610500D01*
X148412351Y-99610500D01*
X148412352Y-99610500D01*
X148614534Y-99578477D01*
X148809219Y-99515220D01*
X148991610Y-99422287D01*
X149089222Y-99351368D01*
X149157213Y-99301971D01*
X149157215Y-99301968D01*
X149157219Y-99301966D01*
X149301966Y-99157219D01*
X149301968Y-99157215D01*
X149301971Y-99157213D01*
X149403369Y-99017648D01*
X150699500Y-99017648D01*
X150699500Y-99222351D01*
X150731522Y-99424534D01*
X150794781Y-99619223D01*
X150887715Y-99801613D01*
X151008028Y-99967213D01*
X151152786Y-100111971D01*
X151307749Y-100224556D01*
X151318390Y-100232287D01*
X151418591Y-100283342D01*
X151500776Y-100325218D01*
X151500778Y-100325218D01*
X151500781Y-100325220D01*
X151605137Y-100359127D01*
X151695465Y-100388477D01*
X151796557Y-100404488D01*
X151897648Y-100420500D01*
X151897649Y-100420500D01*
X152102351Y-100420500D01*
X152102352Y-100420500D01*
X152304534Y-100388477D01*
X152499219Y-100325220D01*
X152681610Y-100232287D01*
X152802420Y-100144514D01*
X152847213Y-100111971D01*
X152847215Y-100111968D01*
X152847219Y-100111966D01*
X152991966Y-99967219D01*
X152991968Y-99967215D01*
X152991971Y-99967213D01*
X153044732Y-99894590D01*
X153112287Y-99801610D01*
X153205220Y-99619219D01*
X153268477Y-99424534D01*
X153300500Y-99222352D01*
X153300500Y-99017648D01*
X153268477Y-98815466D01*
X153266447Y-98809219D01*
X153205218Y-98620776D01*
X153145481Y-98503537D01*
X153112287Y-98438390D01*
X153101834Y-98424003D01*
X152991971Y-98272786D01*
X152847213Y-98128028D01*
X152681613Y-98007715D01*
X152681612Y-98007714D01*
X152681610Y-98007713D01*
X152624653Y-97978691D01*
X152499223Y-97914781D01*
X152304534Y-97851522D01*
X152129995Y-97823878D01*
X152102352Y-97819500D01*
X151897648Y-97819500D01*
X151873329Y-97823351D01*
X151695465Y-97851522D01*
X151500776Y-97914781D01*
X151318386Y-98007715D01*
X151152786Y-98128028D01*
X151008028Y-98272786D01*
X150887715Y-98438386D01*
X150794781Y-98620776D01*
X150731522Y-98815465D01*
X150699500Y-99017648D01*
X149403369Y-99017648D01*
X149422284Y-98991614D01*
X149422285Y-98991613D01*
X149422287Y-98991610D01*
X149512037Y-98815466D01*
X149515218Y-98809223D01*
X149515218Y-98809222D01*
X149515220Y-98809219D01*
X149578477Y-98614534D01*
X149610500Y-98412352D01*
X149610500Y-98207648D01*
X149597889Y-98128028D01*
X149578477Y-98005465D01*
X149529745Y-97855485D01*
X149515220Y-97810781D01*
X149515218Y-97810778D01*
X149515218Y-97810776D01*
X149467261Y-97716657D01*
X149422287Y-97628390D01*
X149375029Y-97563344D01*
X149301971Y-97462786D01*
X149157213Y-97318028D01*
X148991614Y-97197715D01*
X148985006Y-97194348D01*
X148898917Y-97150483D01*
X148848123Y-97102511D01*
X148831328Y-97034690D01*
X148853865Y-96968555D01*
X148898917Y-96929516D01*
X148991610Y-96882287D01*
X149080773Y-96817507D01*
X149157213Y-96761971D01*
X149157215Y-96761968D01*
X149157219Y-96761966D01*
X149301966Y-96617219D01*
X149301968Y-96617215D01*
X149301971Y-96617213D01*
X149371469Y-96521555D01*
X149422287Y-96451610D01*
X149515220Y-96269219D01*
X149578477Y-96074534D01*
X149610500Y-95872352D01*
X149610500Y-95667648D01*
X149578477Y-95465466D01*
X149515220Y-95270781D01*
X149515218Y-95270778D01*
X149515218Y-95270776D01*
X149460666Y-95163713D01*
X149422287Y-95088390D01*
X149357327Y-94998979D01*
X149301971Y-94922786D01*
X149157213Y-94778028D01*
X148991614Y-94657715D01*
X148985006Y-94654348D01*
X148898917Y-94610483D01*
X148848123Y-94562511D01*
X148831328Y-94494690D01*
X148853865Y-94428555D01*
X148898917Y-94389516D01*
X148991610Y-94342287D01*
X149082455Y-94276285D01*
X149157213Y-94221971D01*
X149157215Y-94221968D01*
X149157219Y-94221966D01*
X149301966Y-94077219D01*
X149301968Y-94077215D01*
X149301971Y-94077213D01*
X149354732Y-94004590D01*
X149422287Y-93911610D01*
X149515220Y-93729219D01*
X149578477Y-93534534D01*
X149610500Y-93332352D01*
X149610500Y-93127648D01*
X149596144Y-93037007D01*
X149578477Y-92925465D01*
X149515218Y-92730776D01*
X149465693Y-92633579D01*
X149422287Y-92548390D01*
X149407305Y-92527769D01*
X149301971Y-92382786D01*
X149157213Y-92238028D01*
X148991614Y-92117715D01*
X148984884Y-92114286D01*
X148898917Y-92070483D01*
X148848123Y-92022511D01*
X148831328Y-91954690D01*
X148853865Y-91888555D01*
X148898917Y-91849516D01*
X148991610Y-91802287D01*
X149032434Y-91772627D01*
X149157213Y-91681971D01*
X149157215Y-91681968D01*
X149157219Y-91681966D01*
X149301966Y-91537219D01*
X149301968Y-91537215D01*
X149301971Y-91537213D01*
X149375034Y-91436649D01*
X149422287Y-91371610D01*
X149515220Y-91189219D01*
X149578477Y-90994534D01*
X149610500Y-90792352D01*
X149610500Y-90587648D01*
X149590768Y-90463065D01*
X149578477Y-90385465D01*
X149515218Y-90190776D01*
X149481503Y-90124607D01*
X149422287Y-90008390D01*
X149406966Y-89987302D01*
X149301971Y-89842786D01*
X149157213Y-89698028D01*
X148991613Y-89577715D01*
X148991612Y-89577714D01*
X148991610Y-89577713D01*
X148932675Y-89547684D01*
X148809223Y-89484781D01*
X148614534Y-89421522D01*
X148439995Y-89393878D01*
X148412352Y-89389500D01*
X148207648Y-89389500D01*
X148183329Y-89393351D01*
X148005465Y-89421522D01*
X147810776Y-89484781D01*
X147628386Y-89577715D01*
X147462786Y-89698028D01*
X147318028Y-89842786D01*
X147197715Y-90008386D01*
X147104781Y-90190776D01*
X147041522Y-90385465D01*
X147009500Y-90587648D01*
X147009500Y-90792351D01*
X147041522Y-90994534D01*
X147104781Y-91189223D01*
X147197715Y-91371613D01*
X147318028Y-91537213D01*
X147462786Y-91681971D01*
X147587566Y-91772627D01*
X147628390Y-91802287D01*
X147719840Y-91848883D01*
X147721080Y-91849515D01*
X147771876Y-91897490D01*
X147788671Y-91965311D01*
X147766134Y-92031446D01*
X147721080Y-92070485D01*
X147628386Y-92117715D01*
X147462786Y-92238028D01*
X147318028Y-92382786D01*
X147197715Y-92548386D01*
X147104781Y-92730776D01*
X147041522Y-92925465D01*
X147009500Y-93127648D01*
X147009500Y-93250191D01*
X146989815Y-93317230D01*
X146937011Y-93362985D01*
X146867853Y-93372929D01*
X146804297Y-93343904D01*
X146797819Y-93337872D01*
X146184673Y-92724726D01*
X146107317Y-92673039D01*
X146078127Y-92653535D01*
X146062229Y-92646950D01*
X145959744Y-92604499D01*
X145959738Y-92604497D01*
X145834071Y-92579500D01*
X145834069Y-92579500D01*
X141888071Y-92579500D01*
X141821032Y-92559815D01*
X141787754Y-92528386D01*
X141681966Y-92382781D01*
X141537219Y-92238034D01*
X141537217Y-92238032D01*
X141537212Y-92238028D01*
X141443051Y-92169616D01*
X141400385Y-92114286D01*
X141394406Y-92044673D01*
X141427012Y-91982878D01*
X141476933Y-91951592D01*
X141559117Y-91924359D01*
X141559124Y-91924356D01*
X141708345Y-91832315D01*
X141832315Y-91708345D01*
X141924356Y-91559124D01*
X141924358Y-91559119D01*
X141979505Y-91392697D01*
X141979506Y-91392690D01*
X141989999Y-91289986D01*
X141990000Y-91289973D01*
X141990000Y-90940000D01*
X141005686Y-90940000D01*
X141010080Y-90935606D01*
X141062741Y-90844394D01*
X141090000Y-90742661D01*
X141090000Y-90637339D01*
X141062741Y-90535606D01*
X141010080Y-90444394D01*
X141005686Y-90440000D01*
X141989999Y-90440000D01*
X141989999Y-90090028D01*
X141989998Y-90090013D01*
X141979505Y-89987302D01*
X141924358Y-89820880D01*
X141924356Y-89820875D01*
X141832315Y-89671654D01*
X141708345Y-89547684D01*
X141559124Y-89455643D01*
X141559119Y-89455641D01*
X141392697Y-89400494D01*
X141392690Y-89400493D01*
X141289986Y-89390000D01*
X140940000Y-89390000D01*
X140940000Y-90374314D01*
X140935606Y-90369920D01*
X140844394Y-90317259D01*
X140742661Y-90290000D01*
X140637339Y-90290000D01*
X140535606Y-90317259D01*
X140444394Y-90369920D01*
X140440000Y-90374314D01*
X140440000Y-89390000D01*
X140090028Y-89390000D01*
X140090012Y-89390001D01*
X139987302Y-89400494D01*
X139820880Y-89455641D01*
X139820875Y-89455643D01*
X139671654Y-89547684D01*
X139547684Y-89671654D01*
X139455643Y-89820875D01*
X139455641Y-89820880D01*
X139400494Y-89987302D01*
X139400493Y-89987309D01*
X139390000Y-90090013D01*
X139390000Y-90440000D01*
X140374314Y-90440000D01*
X140369920Y-90444394D01*
X140317259Y-90535606D01*
X140290000Y-90637339D01*
X140290000Y-90742661D01*
X140317259Y-90844394D01*
X140369920Y-90935606D01*
X140374314Y-90940000D01*
X139390001Y-90940000D01*
X139390001Y-91289986D01*
X139400494Y-91392697D01*
X139455641Y-91559119D01*
X139455643Y-91559124D01*
X139547684Y-91708345D01*
X139671654Y-91832315D01*
X139820875Y-91924356D01*
X139820882Y-91924359D01*
X139903067Y-91951592D01*
X139960512Y-91991364D01*
X139987336Y-92055880D01*
X139975021Y-92124656D01*
X139936949Y-92169616D01*
X139842787Y-92238028D01*
X139842782Y-92238032D01*
X139698028Y-92382786D01*
X139577715Y-92548386D01*
X139484781Y-92730776D01*
X139421522Y-92925465D01*
X139389500Y-93127648D01*
X139389500Y-93332351D01*
X139421522Y-93534534D01*
X139484781Y-93729223D01*
X139567437Y-93891443D01*
X139580333Y-93960112D01*
X139554057Y-94024853D01*
X139544633Y-94035419D01*
X136050193Y-97529859D01*
X135988870Y-97563344D01*
X135924194Y-97560109D01*
X135851370Y-97536447D01*
X135618097Y-97499500D01*
X135618092Y-97499500D01*
X135381908Y-97499500D01*
X135381903Y-97499500D01*
X135148631Y-97536446D01*
X134924003Y-97609433D01*
X134713566Y-97716657D01*
X134604550Y-97795862D01*
X134522490Y-97855483D01*
X134522488Y-97855485D01*
X134522487Y-97855485D01*
X134355485Y-98022487D01*
X134355485Y-98022488D01*
X134355483Y-98022490D01*
X134295862Y-98104550D01*
X134216657Y-98213566D01*
X134109433Y-98424003D01*
X134036446Y-98648631D01*
X133999500Y-98881902D01*
X133999500Y-99118097D01*
X134036446Y-99351368D01*
X134109433Y-99575996D01*
X134216657Y-99786433D01*
X134355483Y-99977510D01*
X134522490Y-100144517D01*
X134713567Y-100283343D01*
X134795755Y-100325220D01*
X134924003Y-100390566D01*
X134924005Y-100390566D01*
X134924008Y-100390568D01*
X135016129Y-100420500D01*
X135148631Y-100463553D01*
X135381903Y-100500500D01*
X135381908Y-100500500D01*
X135618097Y-100500500D01*
X135851368Y-100463553D01*
X136075992Y-100390568D01*
X136286433Y-100283343D01*
X136477510Y-100144517D01*
X136644517Y-99977510D01*
X136783343Y-99786433D01*
X136890568Y-99575992D01*
X136963553Y-99351368D01*
X136971377Y-99301971D01*
X137000500Y-99118097D01*
X137000500Y-98881902D01*
X136980347Y-98754666D01*
X136963553Y-98648632D01*
X136939888Y-98575802D01*
X136937894Y-98505963D01*
X136970137Y-98449807D01*
X138681274Y-96738670D01*
X138742595Y-96705187D01*
X138812287Y-96710171D01*
X138868220Y-96752043D01*
X138892637Y-96817507D01*
X138890572Y-96850536D01*
X138889500Y-96855926D01*
X138889500Y-100639191D01*
X138869815Y-100706230D01*
X138853181Y-100726872D01*
X134387190Y-105192862D01*
X134325867Y-105226347D01*
X134280111Y-105227654D01*
X134134611Y-105204609D01*
X134102352Y-105199500D01*
X133897648Y-105199500D01*
X133873329Y-105203351D01*
X133695465Y-105231522D01*
X133500776Y-105294781D01*
X133318386Y-105387715D01*
X133152786Y-105508028D01*
X133008028Y-105652786D01*
X132887715Y-105818386D01*
X132794781Y-106000776D01*
X132731522Y-106195465D01*
X132699500Y-106397648D01*
X127500500Y-106397648D01*
X127500500Y-102897648D01*
X132699500Y-102897648D01*
X132699500Y-103102351D01*
X132731522Y-103304534D01*
X132794781Y-103499223D01*
X132887715Y-103681613D01*
X133008028Y-103847213D01*
X133152786Y-103991971D01*
X133290928Y-104092335D01*
X133318390Y-104112287D01*
X133402319Y-104155051D01*
X133500776Y-104205218D01*
X133500778Y-104205218D01*
X133500781Y-104205220D01*
X133605137Y-104239127D01*
X133695465Y-104268477D01*
X133796557Y-104284488D01*
X133897648Y-104300500D01*
X133897649Y-104300500D01*
X134102351Y-104300500D01*
X134102352Y-104300500D01*
X134304534Y-104268477D01*
X134499219Y-104205220D01*
X134681610Y-104112287D01*
X134794726Y-104030104D01*
X134847213Y-103991971D01*
X134847215Y-103991968D01*
X134847219Y-103991966D01*
X134991966Y-103847219D01*
X134991968Y-103847215D01*
X134991971Y-103847213D01*
X135093247Y-103707816D01*
X135112287Y-103681610D01*
X135205220Y-103499219D01*
X135268477Y-103304534D01*
X135300500Y-103102352D01*
X135300500Y-102897648D01*
X135268477Y-102695466D01*
X135267673Y-102692993D01*
X135205218Y-102500776D01*
X135133383Y-102359794D01*
X135112287Y-102318390D01*
X135093440Y-102292449D01*
X134991971Y-102152786D01*
X134847213Y-102008028D01*
X134681613Y-101887715D01*
X134681612Y-101887714D01*
X134681610Y-101887713D01*
X134598527Y-101845380D01*
X134499223Y-101794781D01*
X134304534Y-101731522D01*
X134129995Y-101703878D01*
X134102352Y-101699500D01*
X133897648Y-101699500D01*
X133873329Y-101703351D01*
X133695465Y-101731522D01*
X133500776Y-101794781D01*
X133318386Y-101887715D01*
X133152786Y-102008028D01*
X133008028Y-102152786D01*
X132887715Y-102318386D01*
X132794781Y-102500776D01*
X132731522Y-102695465D01*
X132699500Y-102897648D01*
X127500500Y-102897648D01*
X127500500Y-95163713D01*
X129149500Y-95163713D01*
X129149500Y-95376286D01*
X129163624Y-95465465D01*
X129182754Y-95586243D01*
X129209204Y-95667648D01*
X129248444Y-95788414D01*
X129344951Y-95977820D01*
X129469890Y-96149786D01*
X129620213Y-96300109D01*
X129792179Y-96425048D01*
X129792181Y-96425049D01*
X129792184Y-96425051D01*
X129981588Y-96521557D01*
X130183757Y-96587246D01*
X130393713Y-96620500D01*
X130393714Y-96620500D01*
X130606286Y-96620500D01*
X130606287Y-96620500D01*
X130816243Y-96587246D01*
X131018412Y-96521557D01*
X131207816Y-96425051D01*
X131229789Y-96409086D01*
X131379786Y-96300109D01*
X131379788Y-96300106D01*
X131379792Y-96300104D01*
X131530104Y-96149792D01*
X131530106Y-96149788D01*
X131530109Y-96149786D01*
X131655048Y-95977820D01*
X131655047Y-95977820D01*
X131655051Y-95977816D01*
X131751557Y-95788412D01*
X131817246Y-95586243D01*
X131850500Y-95376287D01*
X131850500Y-95163713D01*
X131835382Y-95068268D01*
X131844336Y-94998979D01*
X131870171Y-94961195D01*
X133462951Y-93368416D01*
X133545084Y-93245495D01*
X133601658Y-93108913D01*
X133630500Y-92963918D01*
X133630500Y-92816083D01*
X133630500Y-88881947D01*
X134000000Y-88881947D01*
X134000000Y-89118052D01*
X134036934Y-89351247D01*
X134109897Y-89575802D01*
X134217087Y-89786174D01*
X134277338Y-89869104D01*
X134277340Y-89869105D01*
X135017037Y-89129408D01*
X135034075Y-89192993D01*
X135099901Y-89307007D01*
X135192993Y-89400099D01*
X135307007Y-89465925D01*
X135370590Y-89482962D01*
X134630893Y-90222658D01*
X134713828Y-90282914D01*
X134924197Y-90390102D01*
X135148752Y-90463065D01*
X135148751Y-90463065D01*
X135381948Y-90500000D01*
X135618052Y-90500000D01*
X135851247Y-90463065D01*
X136075802Y-90390102D01*
X136286163Y-90282918D01*
X136286169Y-90282914D01*
X136369104Y-90222658D01*
X136369105Y-90222658D01*
X136320992Y-90174545D01*
X135629408Y-89482962D01*
X135692993Y-89465925D01*
X135807007Y-89400099D01*
X135900099Y-89307007D01*
X135965925Y-89192993D01*
X135982962Y-89129409D01*
X136722658Y-89869105D01*
X136722658Y-89869104D01*
X136782914Y-89786169D01*
X136782918Y-89786163D01*
X136890102Y-89575802D01*
X136963065Y-89351247D01*
X137000000Y-89118052D01*
X137000000Y-88881947D01*
X136963065Y-88648752D01*
X136890102Y-88424197D01*
X136782914Y-88213828D01*
X136722658Y-88130894D01*
X136722658Y-88130893D01*
X135982962Y-88870590D01*
X135965925Y-88807007D01*
X135900099Y-88692993D01*
X135807007Y-88599901D01*
X135692993Y-88534075D01*
X135629409Y-88517037D01*
X136369105Y-87777340D01*
X136369104Y-87777338D01*
X136286174Y-87717087D01*
X136075802Y-87609897D01*
X135851247Y-87536934D01*
X135851248Y-87536934D01*
X135618052Y-87500000D01*
X135381948Y-87500000D01*
X135148752Y-87536934D01*
X134924197Y-87609897D01*
X134713830Y-87717084D01*
X134630894Y-87777340D01*
X135370591Y-88517037D01*
X135307007Y-88534075D01*
X135192993Y-88599901D01*
X135099901Y-88692993D01*
X135034075Y-88807007D01*
X135017037Y-88870591D01*
X134277340Y-88130894D01*
X134217084Y-88213830D01*
X134109897Y-88424197D01*
X134036934Y-88648752D01*
X134000000Y-88881947D01*
X133630500Y-88881947D01*
X133630500Y-86625416D01*
X133650185Y-86558377D01*
X133681613Y-86525099D01*
X133727219Y-86491966D01*
X133871966Y-86347219D01*
X133871968Y-86347215D01*
X133871971Y-86347213D01*
X133924732Y-86274590D01*
X133992287Y-86181610D01*
X134085220Y-85999219D01*
X134148477Y-85804534D01*
X134180500Y-85602352D01*
X134180500Y-85397648D01*
X146819500Y-85397648D01*
X146819500Y-85602351D01*
X146851522Y-85804534D01*
X146914781Y-85999223D01*
X147007715Y-86181613D01*
X147128028Y-86347213D01*
X147272786Y-86491971D01*
X147394535Y-86580425D01*
X147438390Y-86612287D01*
X147554607Y-86671503D01*
X147620776Y-86705218D01*
X147620778Y-86705218D01*
X147620781Y-86705220D01*
X147725137Y-86739127D01*
X147815465Y-86768477D01*
X147916557Y-86784488D01*
X148017648Y-86800500D01*
X148017649Y-86800500D01*
X148222351Y-86800500D01*
X148222352Y-86800500D01*
X148424534Y-86768477D01*
X148619219Y-86705220D01*
X148801610Y-86612287D01*
X148921619Y-86525096D01*
X148967213Y-86491971D01*
X148967215Y-86491968D01*
X148967219Y-86491966D01*
X149111966Y-86347219D01*
X149111968Y-86347215D01*
X149111971Y-86347213D01*
X149164732Y-86274590D01*
X149232287Y-86181610D01*
X149325220Y-85999219D01*
X149388477Y-85804534D01*
X149420500Y-85602352D01*
X149420500Y-85397648D01*
X149388477Y-85195466D01*
X149383614Y-85180500D01*
X149325218Y-85000776D01*
X149291503Y-84934607D01*
X149232287Y-84818390D01*
X149224556Y-84807749D01*
X149111971Y-84652786D01*
X148967213Y-84508028D01*
X148801613Y-84387715D01*
X148801612Y-84387714D01*
X148801610Y-84387713D01*
X148744653Y-84358691D01*
X148619223Y-84294781D01*
X148424534Y-84231522D01*
X148249995Y-84203878D01*
X148222352Y-84199500D01*
X148017648Y-84199500D01*
X147993329Y-84203351D01*
X147815465Y-84231522D01*
X147620776Y-84294781D01*
X147438386Y-84387715D01*
X147272786Y-84508028D01*
X147128028Y-84652786D01*
X147007715Y-84818386D01*
X146914781Y-85000776D01*
X146851522Y-85195465D01*
X146819500Y-85397648D01*
X134180500Y-85397648D01*
X134148477Y-85195466D01*
X134143614Y-85180500D01*
X134085218Y-85000776D01*
X134051503Y-84934607D01*
X133992287Y-84818390D01*
X133984556Y-84807749D01*
X133871971Y-84652786D01*
X133727213Y-84508028D01*
X133561613Y-84387715D01*
X133561612Y-84387714D01*
X133561610Y-84387713D01*
X133504653Y-84358691D01*
X133379223Y-84294781D01*
X133184534Y-84231522D01*
X133009995Y-84203878D01*
X132982352Y-84199500D01*
X132777648Y-84199500D01*
X132753329Y-84203351D01*
X132575465Y-84231522D01*
X132380776Y-84294781D01*
X132198386Y-84387715D01*
X132032786Y-84508028D01*
X131888028Y-84652786D01*
X131767715Y-84818386D01*
X131674781Y-85000776D01*
X131611522Y-85195465D01*
X131579500Y-85397648D01*
X131579500Y-85602351D01*
X131611522Y-85804534D01*
X131674781Y-85999223D01*
X131767715Y-86181613D01*
X131888028Y-86347213D01*
X131888034Y-86347219D01*
X132032781Y-86491966D01*
X132078384Y-86525098D01*
X132121050Y-86580425D01*
X132129500Y-86625416D01*
X132129500Y-92527769D01*
X132120855Y-92557209D01*
X132114332Y-92587196D01*
X132110577Y-92592211D01*
X132109815Y-92594808D01*
X132093181Y-92615450D01*
X132061681Y-92646950D01*
X132000358Y-92680435D01*
X131930666Y-92675451D01*
X131874733Y-92633579D01*
X131850316Y-92568115D01*
X131850000Y-92559269D01*
X131850000Y-91832172D01*
X131849999Y-91832155D01*
X131843598Y-91772627D01*
X131843596Y-91772620D01*
X131793354Y-91637913D01*
X131793350Y-91637906D01*
X131707190Y-91522812D01*
X131707187Y-91522809D01*
X131592093Y-91436649D01*
X131592086Y-91436645D01*
X131457379Y-91386403D01*
X131457372Y-91386401D01*
X131397844Y-91380000D01*
X130750000Y-91380000D01*
X130750000Y-92296988D01*
X130692993Y-92264075D01*
X130565826Y-92230000D01*
X130434174Y-92230000D01*
X130307007Y-92264075D01*
X130250000Y-92296988D01*
X130250000Y-91380000D01*
X129602155Y-91380000D01*
X129542627Y-91386401D01*
X129542620Y-91386403D01*
X129407913Y-91436645D01*
X129407906Y-91436649D01*
X129292812Y-91522809D01*
X129292809Y-91522812D01*
X129206649Y-91637906D01*
X129206645Y-91637913D01*
X129156403Y-91772620D01*
X129156401Y-91772627D01*
X129150000Y-91832155D01*
X129150000Y-92480000D01*
X130066988Y-92480000D01*
X130034075Y-92537007D01*
X130000000Y-92664174D01*
X130000000Y-92795826D01*
X130034075Y-92922993D01*
X130066988Y-92980000D01*
X129150000Y-92980000D01*
X129150000Y-93627844D01*
X129156401Y-93687372D01*
X129156403Y-93687379D01*
X129206645Y-93822086D01*
X129206649Y-93822093D01*
X129292809Y-93937187D01*
X129292812Y-93937190D01*
X129407906Y-94023350D01*
X129407913Y-94023354D01*
X129539470Y-94072422D01*
X129595404Y-94114293D01*
X129619821Y-94179758D01*
X129604969Y-94248031D01*
X129583819Y-94276285D01*
X129469889Y-94390215D01*
X129344951Y-94562179D01*
X129248444Y-94751585D01*
X129182753Y-94953760D01*
X129149500Y-95163713D01*
X127500500Y-95163713D01*
X127500500Y-83777648D01*
X150699500Y-83777648D01*
X150699500Y-83982351D01*
X150731522Y-84184534D01*
X150794781Y-84379223D01*
X150887715Y-84561613D01*
X151008028Y-84727213D01*
X151152786Y-84871971D01*
X151307749Y-84984556D01*
X151318390Y-84992287D01*
X151434607Y-85051503D01*
X151500776Y-85085218D01*
X151500778Y-85085218D01*
X151500781Y-85085220D01*
X151605137Y-85119127D01*
X151695465Y-85148477D01*
X151796557Y-85164488D01*
X151897648Y-85180500D01*
X151897649Y-85180500D01*
X152102351Y-85180500D01*
X152102352Y-85180500D01*
X152304534Y-85148477D01*
X152499219Y-85085220D01*
X152681610Y-84992287D01*
X152774590Y-84924732D01*
X152847213Y-84871971D01*
X152847215Y-84871968D01*
X152847219Y-84871966D01*
X152991966Y-84727219D01*
X152991968Y-84727215D01*
X152991971Y-84727213D01*
X153046048Y-84652781D01*
X153112287Y-84561610D01*
X153205220Y-84379219D01*
X153268477Y-84184534D01*
X153300500Y-83982352D01*
X153300500Y-83777648D01*
X153268477Y-83575466D01*
X153205220Y-83380781D01*
X153205218Y-83380778D01*
X153205218Y-83380776D01*
X153171503Y-83314607D01*
X153112287Y-83198390D01*
X153104556Y-83187749D01*
X152991971Y-83032786D01*
X152847213Y-82888028D01*
X152681613Y-82767715D01*
X152681612Y-82767714D01*
X152681610Y-82767713D01*
X152624653Y-82738691D01*
X152499223Y-82674781D01*
X152304534Y-82611522D01*
X152129995Y-82583878D01*
X152102352Y-82579500D01*
X151897648Y-82579500D01*
X151873329Y-82583351D01*
X151695465Y-82611522D01*
X151500776Y-82674781D01*
X151318386Y-82767715D01*
X151152786Y-82888028D01*
X151008028Y-83032786D01*
X150887715Y-83198386D01*
X150794781Y-83380776D01*
X150731522Y-83575465D01*
X150699500Y-83777648D01*
X127500500Y-83777648D01*
X127500500Y-82124500D01*
X127520185Y-82057461D01*
X127572989Y-82011706D01*
X127624500Y-82000500D01*
X154875500Y-82000500D01*
X154942539Y-82020185D01*
G37*
%TD.AperFunction*%
%TD*%
M02*
