%TF.GenerationSoftware,KiCad,Pcbnew,10.0.3*%
%TF.CreationDate,2026-06-18T07:53:20+05:30*%
%TF.ProjectId,StemToyTutorial,5374656d-546f-4795-9475-746f7269616c,rev?*%
%TF.SameCoordinates,Original*%
%TF.FileFunction,Legend,Bot*%
%TF.FilePolarity,Positive*%
%FSLAX46Y46*%
G04 Gerber Fmt 4.6, Leading zero omitted, Abs format (unit mm)*
G04 Created by KiCad (PCBNEW 10.0.3) date 2026-06-18 07:53:20*
%MOMM*%
%LPD*%
G01*
G04 APERTURE LIST*
%ADD10C,0.000000*%
G04 APERTURE END LIST*
D10*
%TO.C,G\u002A\u002A\u002A*%
G36*
X150276425Y-106915583D02*
G01*
X150278472Y-107036366D01*
X150298501Y-107255786D01*
X150342151Y-107414163D01*
X150412206Y-107519350D01*
X150511447Y-107579204D01*
X150527568Y-107584527D01*
X150612489Y-107593536D01*
X150680280Y-107550233D01*
X150703388Y-107519634D01*
X150725299Y-107460124D01*
X150740380Y-107365465D01*
X150750565Y-107222363D01*
X150757787Y-107017524D01*
X150770227Y-106549778D01*
X150973519Y-106549778D01*
X151176810Y-106549778D01*
X151176601Y-106971860D01*
X151175455Y-107089731D01*
X151161243Y-107352584D01*
X151128737Y-107553266D01*
X151075334Y-107700045D01*
X150998430Y-107801191D01*
X150895422Y-107864974D01*
X150790343Y-107891129D01*
X150628232Y-107892686D01*
X150484494Y-107856906D01*
X150453396Y-107837375D01*
X150372564Y-107749765D01*
X150296507Y-107622416D01*
X150204070Y-107431462D01*
X150202700Y-107647193D01*
X150201330Y-107862924D01*
X150051256Y-107862924D01*
X149901182Y-107862924D01*
X149901182Y-107206351D01*
X149901182Y-106549778D01*
X150088775Y-106549778D01*
X150276367Y-106549778D01*
X150276425Y-106915583D01*
G37*
G36*
X148168506Y-107464904D02*
G01*
X148168592Y-107465962D01*
X148158580Y-107635207D01*
X148104394Y-107771917D01*
X148013209Y-107857933D01*
X147979711Y-107869877D01*
X147871995Y-107885810D01*
X147744805Y-107885930D01*
X147692142Y-107881223D01*
X147591205Y-107859282D01*
X147510782Y-107809588D01*
X147418910Y-107715416D01*
X147279674Y-107558516D01*
X147267902Y-107701340D01*
X147262723Y-107755150D01*
X147244020Y-107817763D01*
X147194958Y-107844762D01*
X147093247Y-107855869D01*
X146930363Y-107867574D01*
X146954851Y-107405648D01*
X146959304Y-107324733D01*
X147309369Y-107324733D01*
X147335004Y-107406921D01*
X147393692Y-107494600D01*
X147472869Y-107563800D01*
X147498554Y-107578725D01*
X147629556Y-107627634D01*
X147727197Y-107616120D01*
X147784247Y-107547326D01*
X147793480Y-107424395D01*
X147782831Y-107369874D01*
X147752629Y-107331949D01*
X147685156Y-107308479D01*
X147561714Y-107288502D01*
X147463204Y-107277081D01*
X147367332Y-107271757D01*
X147322718Y-107277331D01*
X147309369Y-107324733D01*
X146959304Y-107324733D01*
X146964190Y-107235937D01*
X146976934Y-107047475D01*
X146991530Y-106912036D01*
X147010887Y-106816687D01*
X147037913Y-106748496D01*
X147075515Y-106694533D01*
X147126601Y-106641864D01*
X147173346Y-106603716D01*
X147331637Y-106533568D01*
X147518137Y-106513904D01*
X147714589Y-106542836D01*
X147902740Y-106618473D01*
X148064334Y-106738927D01*
X148078726Y-106753893D01*
X148131613Y-106839853D01*
X148112143Y-106907087D01*
X148019661Y-106958811D01*
X147958023Y-106979090D01*
X147866576Y-106996191D01*
X147811357Y-106974468D01*
X147771055Y-106909712D01*
X147769286Y-106905955D01*
X147698908Y-106829102D01*
X147595710Y-106788184D01*
X147483771Y-106784213D01*
X147387171Y-106818202D01*
X147329987Y-106891163D01*
X147321736Y-106950763D01*
X147356659Y-107017718D01*
X147452636Y-107068194D01*
X147616533Y-107107372D01*
X147712430Y-107128535D01*
X147871233Y-107177785D01*
X147999614Y-107233531D01*
X148018675Y-107244148D01*
X148108640Y-107304743D01*
X148151917Y-107369197D01*
X148161485Y-107424395D01*
X148168506Y-107464904D01*
G37*
G36*
X145586559Y-107533503D02*
G01*
X145582523Y-107625640D01*
X145555733Y-107726991D01*
X145494468Y-107808352D01*
X145376480Y-107882656D01*
X145227167Y-107907873D01*
X145074345Y-107882373D01*
X144940421Y-107810087D01*
X144847800Y-107694943D01*
X144799693Y-107607291D01*
X144757474Y-107569368D01*
X144732103Y-107604557D01*
X144723634Y-107712850D01*
X144723634Y-107862924D01*
X144537418Y-107862924D01*
X144351202Y-107862924D01*
X144370567Y-107422082D01*
X144374787Y-107332405D01*
X144761153Y-107332405D01*
X144763687Y-107350627D01*
X144801427Y-107431609D01*
X144870002Y-107521290D01*
X144966322Y-107603531D01*
X145071926Y-107633873D01*
X145183236Y-107597289D01*
X145195039Y-107589165D01*
X145240233Y-107514614D01*
X145243513Y-107421170D01*
X145201995Y-107347252D01*
X145171983Y-107332256D01*
X145079063Y-107306082D01*
X144958125Y-107285088D01*
X144882038Y-107276217D01*
X144802782Y-107273930D01*
X144768536Y-107291206D01*
X144761153Y-107332405D01*
X144374787Y-107332405D01*
X144381495Y-107189841D01*
X144393191Y-107011756D01*
X144408283Y-106884370D01*
X144429788Y-106795339D01*
X144460724Y-106732315D01*
X144504107Y-106682954D01*
X144562956Y-106634909D01*
X144638250Y-106583206D01*
X144718265Y-106549750D01*
X144820528Y-106534586D01*
X144971353Y-106531018D01*
X145154239Y-106541840D01*
X145307497Y-106584969D01*
X145424363Y-106669599D01*
X145523092Y-106804787D01*
X145590941Y-106920638D01*
X145445466Y-106964223D01*
X145400004Y-106977291D01*
X145322144Y-106988239D01*
X145261273Y-106962731D01*
X145183532Y-106891348D01*
X145181819Y-106889640D01*
X145056192Y-106798416D01*
X144938207Y-106780765D01*
X144829764Y-106836981D01*
X144771414Y-106904580D01*
X144761487Y-106971131D01*
X144816397Y-107028446D01*
X144939544Y-107079776D01*
X145134325Y-107128375D01*
X145267777Y-107160067D01*
X145423219Y-107217504D01*
X145521064Y-107292529D01*
X145571960Y-107394682D01*
X145574746Y-107421170D01*
X145586559Y-107533503D01*
G37*
G36*
X144160857Y-107862924D02*
G01*
X143993985Y-107862924D01*
X143827113Y-107862924D01*
X143814938Y-107665952D01*
X143810245Y-107597483D01*
X143800722Y-107531305D01*
X143783895Y-107527416D01*
X143753793Y-107588612D01*
X143704449Y-107717688D01*
X143661098Y-107791556D01*
X143586030Y-107857936D01*
X143542879Y-107872052D01*
X143431223Y-107886630D01*
X143299816Y-107886908D01*
X143237011Y-107882152D01*
X143132151Y-107862480D01*
X143055338Y-107818134D01*
X142973881Y-107733750D01*
X142955761Y-107711849D01*
X142846125Y-107516152D01*
X142795509Y-107288921D01*
X142800128Y-107202031D01*
X143186212Y-107202031D01*
X143202935Y-107363102D01*
X143251869Y-107477620D01*
X143275723Y-107504693D01*
X143389569Y-107574204D01*
X143518316Y-107584363D01*
X143637001Y-107531667D01*
X143677114Y-107494547D01*
X143710631Y-107437294D01*
X143725822Y-107351343D01*
X143729395Y-107213605D01*
X143716008Y-107033295D01*
X143670347Y-106905938D01*
X143587773Y-106834629D01*
X143463674Y-106812407D01*
X143382471Y-106823676D01*
X143274969Y-106892554D01*
X143208483Y-107020170D01*
X143186212Y-107202031D01*
X142800128Y-107202031D01*
X142808300Y-107048321D01*
X142821286Y-106982017D01*
X142852276Y-106857297D01*
X142892593Y-106772560D01*
X142956759Y-106703318D01*
X143059296Y-106625085D01*
X143088933Y-106604126D01*
X143192142Y-106542028D01*
X143278773Y-106518459D01*
X143380217Y-106523480D01*
X143390350Y-106525004D01*
X143515372Y-106566978D01*
X143630688Y-106640854D01*
X143715286Y-106729856D01*
X143748154Y-106817212D01*
X143752623Y-106852703D01*
X143781662Y-106903724D01*
X143787929Y-106905457D01*
X143796454Y-106871000D01*
X143782557Y-106784004D01*
X143766570Y-106681033D01*
X143754140Y-106530812D01*
X143749049Y-106371565D01*
X143748154Y-106099556D01*
X143954506Y-106099556D01*
X144160857Y-106099556D01*
X144160857Y-106981240D01*
X144160857Y-107213605D01*
X144160857Y-107862924D01*
G37*
G36*
X142372055Y-106564177D02*
G01*
X142538184Y-106671372D01*
X142568651Y-106704265D01*
X142610734Y-106793127D01*
X142622600Y-106924962D01*
X142604499Y-107067210D01*
X142539432Y-107177742D01*
X142418848Y-107252365D01*
X142234291Y-107299230D01*
X142105828Y-107325225D01*
X141951666Y-107374718D01*
X141847262Y-107432374D01*
X141798645Y-107492861D01*
X141811845Y-107550852D01*
X141892890Y-107601017D01*
X141919287Y-107609760D01*
X142068851Y-107621553D01*
X142213900Y-107581095D01*
X142324192Y-107495766D01*
X142347203Y-107466943D01*
X142393277Y-107424594D01*
X142444594Y-107424930D01*
X142532248Y-107463066D01*
X142604962Y-107502638D01*
X142644670Y-107549050D01*
X142639285Y-107610194D01*
X142623832Y-107652458D01*
X142529136Y-107782272D01*
X142381782Y-107860107D01*
X142343171Y-107869372D01*
X142216382Y-107887981D01*
X142078583Y-107896849D01*
X141940527Y-107893078D01*
X141729628Y-107852490D01*
X141579367Y-107768031D01*
X141489436Y-107639487D01*
X141459528Y-107466643D01*
X141466096Y-107389445D01*
X141519627Y-107266625D01*
X141632545Y-107176034D01*
X141811472Y-107110981D01*
X141963841Y-107070912D01*
X142112334Y-107026373D01*
X142206848Y-106988038D01*
X142258629Y-106951085D01*
X142278923Y-106910699D01*
X142280177Y-106876136D01*
X142241940Y-106812347D01*
X142160600Y-106778105D01*
X142055191Y-106775189D01*
X141944746Y-106805377D01*
X141848297Y-106870449D01*
X141782156Y-106928460D01*
X141717798Y-106946433D01*
X141625414Y-106923990D01*
X141548587Y-106895105D01*
X141485515Y-106849426D01*
X141490771Y-106793058D01*
X141560592Y-106713802D01*
X141581025Y-106695350D01*
X141762243Y-106580105D01*
X141966326Y-106519315D01*
X142175516Y-106513748D01*
X142372055Y-106564177D01*
G37*
G36*
X151777106Y-106981240D02*
G01*
X151777106Y-107862924D01*
X151589513Y-107862924D01*
X151401921Y-107862924D01*
X151401921Y-106981240D01*
X151401921Y-106099556D01*
X151589513Y-106099556D01*
X151777106Y-106099556D01*
X151777106Y-106981240D01*
G37*
G36*
X148997081Y-106552572D02*
G01*
X149143923Y-106647935D01*
X149259996Y-106801434D01*
X149335089Y-106943722D01*
X149336747Y-106746750D01*
X149338405Y-106549778D01*
X149488479Y-106549778D01*
X149638553Y-106549778D01*
X149638553Y-107206351D01*
X149638553Y-107862924D01*
X149455010Y-107862924D01*
X149271467Y-107862924D01*
X149257860Y-107434295D01*
X149255981Y-107377183D01*
X149248406Y-107206172D01*
X149237553Y-107089878D01*
X149220237Y-107012275D01*
X149193273Y-106957337D01*
X149153475Y-106909037D01*
X149150291Y-106905680D01*
X149039424Y-106828009D01*
X148929794Y-106823078D01*
X148828341Y-106891265D01*
X148801357Y-106928249D01*
X148777817Y-106988901D01*
X148762026Y-107080758D01*
X148751648Y-107218429D01*
X148744348Y-107416523D01*
X148731826Y-107862924D01*
X148543858Y-107862924D01*
X148355890Y-107862924D01*
X148368787Y-107319571D01*
X148381685Y-106776218D01*
X148499056Y-106658904D01*
X148516371Y-106642345D01*
X148668861Y-106547071D01*
X148833912Y-106518049D01*
X148997081Y-106552572D01*
G37*
G36*
X146186855Y-106981240D02*
G01*
X146186855Y-107862924D01*
X145999262Y-107862924D01*
X145811670Y-107862924D01*
X145811670Y-106981240D01*
X145811670Y-106099556D01*
X145999262Y-106099556D01*
X146186855Y-106099556D01*
X146186855Y-106981240D01*
G37*
G36*
X153636939Y-107124850D02*
G01*
X153560453Y-107321666D01*
X153433281Y-107492704D01*
X153269491Y-107615096D01*
X153248081Y-107625229D01*
X153106847Y-107661865D01*
X152916543Y-107665685D01*
X152809177Y-107654090D01*
X152609749Y-107587756D01*
X152453942Y-107461802D01*
X152335645Y-107272087D01*
X152288795Y-107134011D01*
X152277576Y-106983600D01*
X152307878Y-106983600D01*
X152511754Y-107090342D01*
X152599191Y-107141419D01*
X152726224Y-107232216D01*
X152818524Y-107317863D01*
X152837590Y-107340607D01*
X152911965Y-107435602D01*
X152963032Y-107510088D01*
X152968022Y-107518123D01*
X152988843Y-107532895D01*
X153007117Y-107501590D01*
X153026166Y-107414678D01*
X153049313Y-107262629D01*
X153059930Y-107181763D01*
X153074602Y-107001520D01*
X153069351Y-106841121D01*
X153043825Y-106662333D01*
X152993669Y-106380945D01*
X152907816Y-106533140D01*
X152865069Y-106604270D01*
X152812017Y-106671687D01*
X152741721Y-106732043D01*
X152637666Y-106799087D01*
X152483334Y-106886573D01*
X152307878Y-106983600D01*
X152277576Y-106983600D01*
X152273197Y-106924888D01*
X152317814Y-106726903D01*
X152415127Y-106552137D01*
X152557619Y-106412673D01*
X152737770Y-106320591D01*
X152948063Y-106287972D01*
X153031209Y-106294568D01*
X153201069Y-106337287D01*
X153357958Y-106409097D01*
X153470904Y-106497581D01*
X153489920Y-106523597D01*
X153543949Y-106627884D01*
X153596847Y-106761734D01*
X153637007Y-106893598D01*
X153652820Y-106991931D01*
X153651674Y-107001520D01*
X153636939Y-107124850D01*
G37*
%TD*%
M02*
