%TF.GenerationSoftware,KiCad,Pcbnew,10.0.3*%
%TF.CreationDate,2026-06-18T07:53:20+05:30*%
%TF.ProjectId,StemToyTutorial,5374656d-546f-4795-9475-746f7269616c,rev?*%
%TF.SameCoordinates,Original*%
%TF.FileFunction,Legend,Top*%
%TF.FilePolarity,Positive*%
%FSLAX46Y46*%
G04 Gerber Fmt 4.6, Leading zero omitted, Abs format (unit mm)*
G04 Created by KiCad (PCBNEW 10.0.3) date 2026-06-18 07:53:20*
%MOMM*%
%LPD*%
G01*
G04 APERTURE LIST*
%ADD10C,0.125000*%
%ADD11C,0.150000*%
%ADD12C,0.000000*%
%ADD13C,0.120000*%
G04 APERTURE END LIST*
D10*
X151725093Y-107704452D02*
X151963188Y-108371119D01*
X151963188Y-108371119D02*
X152201283Y-107704452D01*
X153106045Y-108371119D02*
X152534617Y-108371119D01*
X152820331Y-108371119D02*
X152820331Y-107371119D01*
X152820331Y-107371119D02*
X152725093Y-107513976D01*
X152725093Y-107513976D02*
X152629855Y-107609214D01*
X152629855Y-107609214D02*
X152534617Y-107656833D01*
X153534617Y-108275880D02*
X153582236Y-108323500D01*
X153582236Y-108323500D02*
X153534617Y-108371119D01*
X153534617Y-108371119D02*
X153486998Y-108323500D01*
X153486998Y-108323500D02*
X153534617Y-108275880D01*
X153534617Y-108275880D02*
X153534617Y-108371119D01*
X154201283Y-107371119D02*
X154296521Y-107371119D01*
X154296521Y-107371119D02*
X154391759Y-107418738D01*
X154391759Y-107418738D02*
X154439378Y-107466357D01*
X154439378Y-107466357D02*
X154486997Y-107561595D01*
X154486997Y-107561595D02*
X154534616Y-107752071D01*
X154534616Y-107752071D02*
X154534616Y-107990166D01*
X154534616Y-107990166D02*
X154486997Y-108180642D01*
X154486997Y-108180642D02*
X154439378Y-108275880D01*
X154439378Y-108275880D02*
X154391759Y-108323500D01*
X154391759Y-108323500D02*
X154296521Y-108371119D01*
X154296521Y-108371119D02*
X154201283Y-108371119D01*
X154201283Y-108371119D02*
X154106045Y-108323500D01*
X154106045Y-108323500D02*
X154058426Y-108275880D01*
X154058426Y-108275880D02*
X154010807Y-108180642D01*
X154010807Y-108180642D02*
X153963188Y-107990166D01*
X153963188Y-107990166D02*
X153963188Y-107752071D01*
X153963188Y-107752071D02*
X154010807Y-107561595D01*
X154010807Y-107561595D02*
X154058426Y-107466357D01*
X154058426Y-107466357D02*
X154106045Y-107418738D01*
X154106045Y-107418738D02*
X154201283Y-107371119D01*
D11*
X128573866Y-108571428D02*
X128573866Y-107809524D01*
X128954819Y-108190476D02*
X128192914Y-108190476D01*
X128954819Y-106047619D02*
X128954819Y-106619047D01*
X128954819Y-106333333D02*
X127954819Y-106333333D01*
X127954819Y-106333333D02*
X128097676Y-106428571D01*
X128097676Y-106428571D02*
X128192914Y-106523809D01*
X128192914Y-106523809D02*
X128240533Y-106619047D01*
X127954819Y-105428571D02*
X127954819Y-105333333D01*
X127954819Y-105333333D02*
X128002438Y-105238095D01*
X128002438Y-105238095D02*
X128050057Y-105190476D01*
X128050057Y-105190476D02*
X128145295Y-105142857D01*
X128145295Y-105142857D02*
X128335771Y-105095238D01*
X128335771Y-105095238D02*
X128573866Y-105095238D01*
X128573866Y-105095238D02*
X128764342Y-105142857D01*
X128764342Y-105142857D02*
X128859580Y-105190476D01*
X128859580Y-105190476D02*
X128907200Y-105238095D01*
X128907200Y-105238095D02*
X128954819Y-105333333D01*
X128954819Y-105333333D02*
X128954819Y-105428571D01*
X128954819Y-105428571D02*
X128907200Y-105523809D01*
X128907200Y-105523809D02*
X128859580Y-105571428D01*
X128859580Y-105571428D02*
X128764342Y-105619047D01*
X128764342Y-105619047D02*
X128573866Y-105666666D01*
X128573866Y-105666666D02*
X128335771Y-105666666D01*
X128335771Y-105666666D02*
X128145295Y-105619047D01*
X128145295Y-105619047D02*
X128050057Y-105571428D01*
X128050057Y-105571428D02*
X128002438Y-105523809D01*
X128002438Y-105523809D02*
X127954819Y-105428571D01*
X127954819Y-104476190D02*
X127954819Y-104380952D01*
X127954819Y-104380952D02*
X128002438Y-104285714D01*
X128002438Y-104285714D02*
X128050057Y-104238095D01*
X128050057Y-104238095D02*
X128145295Y-104190476D01*
X128145295Y-104190476D02*
X128335771Y-104142857D01*
X128335771Y-104142857D02*
X128573866Y-104142857D01*
X128573866Y-104142857D02*
X128764342Y-104190476D01*
X128764342Y-104190476D02*
X128859580Y-104238095D01*
X128859580Y-104238095D02*
X128907200Y-104285714D01*
X128907200Y-104285714D02*
X128954819Y-104380952D01*
X128954819Y-104380952D02*
X128954819Y-104476190D01*
X128954819Y-104476190D02*
X128907200Y-104571428D01*
X128907200Y-104571428D02*
X128859580Y-104619047D01*
X128859580Y-104619047D02*
X128764342Y-104666666D01*
X128764342Y-104666666D02*
X128573866Y-104714285D01*
X128573866Y-104714285D02*
X128335771Y-104714285D01*
X128335771Y-104714285D02*
X128145295Y-104666666D01*
X128145295Y-104666666D02*
X128050057Y-104619047D01*
X128050057Y-104619047D02*
X128002438Y-104571428D01*
X128002438Y-104571428D02*
X127954819Y-104476190D01*
X128288152Y-103285714D02*
X128954819Y-103285714D01*
X128288152Y-103714285D02*
X128811961Y-103714285D01*
X128811961Y-103714285D02*
X128907200Y-103666666D01*
X128907200Y-103666666D02*
X128954819Y-103571428D01*
X128954819Y-103571428D02*
X128954819Y-103428571D01*
X128954819Y-103428571D02*
X128907200Y-103333333D01*
X128907200Y-103333333D02*
X128859580Y-103285714D01*
X128431009Y-102476190D02*
X128431009Y-102809523D01*
X128954819Y-102809523D02*
X127954819Y-102809523D01*
X127954819Y-102809523D02*
X127954819Y-102333333D01*
X128573866Y-101190475D02*
X128573866Y-100428571D01*
X154954819Y-92190476D02*
X154954819Y-92761904D01*
X154954819Y-92476190D02*
X153954819Y-92476190D01*
X153954819Y-92476190D02*
X154097676Y-92571428D01*
X154097676Y-92571428D02*
X154192914Y-92666666D01*
X154192914Y-92666666D02*
X154240533Y-92761904D01*
X153954819Y-91571428D02*
X153954819Y-91476190D01*
X153954819Y-91476190D02*
X154002438Y-91380952D01*
X154002438Y-91380952D02*
X154050057Y-91333333D01*
X154050057Y-91333333D02*
X154145295Y-91285714D01*
X154145295Y-91285714D02*
X154335771Y-91238095D01*
X154335771Y-91238095D02*
X154573866Y-91238095D01*
X154573866Y-91238095D02*
X154764342Y-91285714D01*
X154764342Y-91285714D02*
X154859580Y-91333333D01*
X154859580Y-91333333D02*
X154907200Y-91380952D01*
X154907200Y-91380952D02*
X154954819Y-91476190D01*
X154954819Y-91476190D02*
X154954819Y-91571428D01*
X154954819Y-91571428D02*
X154907200Y-91666666D01*
X154907200Y-91666666D02*
X154859580Y-91714285D01*
X154859580Y-91714285D02*
X154764342Y-91761904D01*
X154764342Y-91761904D02*
X154573866Y-91809523D01*
X154573866Y-91809523D02*
X154335771Y-91809523D01*
X154335771Y-91809523D02*
X154145295Y-91761904D01*
X154145295Y-91761904D02*
X154050057Y-91714285D01*
X154050057Y-91714285D02*
X154002438Y-91666666D01*
X154002438Y-91666666D02*
X153954819Y-91571428D01*
X154954819Y-90809523D02*
X153954819Y-90809523D01*
X154954819Y-90238095D02*
X154383390Y-90666666D01*
X153954819Y-90238095D02*
X154526247Y-90809523D01*
X140285714Y-83454819D02*
X139714286Y-83454819D01*
X140000000Y-83454819D02*
X140000000Y-82454819D01*
X140000000Y-82454819D02*
X139904762Y-82597676D01*
X139904762Y-82597676D02*
X139809524Y-82692914D01*
X139809524Y-82692914D02*
X139714286Y-82740533D01*
X140714286Y-83454819D02*
X140714286Y-82454819D01*
X141285714Y-83454819D02*
X140857143Y-82883390D01*
X141285714Y-82454819D02*
X140714286Y-83026247D01*
X139454819Y-94095238D02*
X139454819Y-94666666D01*
X139454819Y-94380952D02*
X138454819Y-94380952D01*
X138454819Y-94380952D02*
X138597676Y-94476190D01*
X138597676Y-94476190D02*
X138692914Y-94571428D01*
X138692914Y-94571428D02*
X138740533Y-94666666D01*
X138788152Y-93666666D02*
X139454819Y-93666666D01*
X138883390Y-93666666D02*
X138835771Y-93619047D01*
X138835771Y-93619047D02*
X138788152Y-93523809D01*
X138788152Y-93523809D02*
X138788152Y-93380952D01*
X138788152Y-93380952D02*
X138835771Y-93285714D01*
X138835771Y-93285714D02*
X138931009Y-93238095D01*
X138931009Y-93238095D02*
X139454819Y-93238095D01*
X138931009Y-92428571D02*
X138931009Y-92761904D01*
X139454819Y-92761904D02*
X138454819Y-92761904D01*
X138454819Y-92761904D02*
X138454819Y-92285714D01*
X142190476Y-88454819D02*
X142190476Y-87454819D01*
X143238094Y-88359580D02*
X143190475Y-88407200D01*
X143190475Y-88407200D02*
X143047618Y-88454819D01*
X143047618Y-88454819D02*
X142952380Y-88454819D01*
X142952380Y-88454819D02*
X142809523Y-88407200D01*
X142809523Y-88407200D02*
X142714285Y-88311961D01*
X142714285Y-88311961D02*
X142666666Y-88216723D01*
X142666666Y-88216723D02*
X142619047Y-88026247D01*
X142619047Y-88026247D02*
X142619047Y-87883390D01*
X142619047Y-87883390D02*
X142666666Y-87692914D01*
X142666666Y-87692914D02*
X142714285Y-87597676D01*
X142714285Y-87597676D02*
X142809523Y-87502438D01*
X142809523Y-87502438D02*
X142952380Y-87454819D01*
X142952380Y-87454819D02*
X143047618Y-87454819D01*
X143047618Y-87454819D02*
X143190475Y-87502438D01*
X143190475Y-87502438D02*
X143238094Y-87550057D01*
X144904761Y-87454819D02*
X144428571Y-87454819D01*
X144428571Y-87454819D02*
X144380952Y-87931009D01*
X144380952Y-87931009D02*
X144428571Y-87883390D01*
X144428571Y-87883390D02*
X144523809Y-87835771D01*
X144523809Y-87835771D02*
X144761904Y-87835771D01*
X144761904Y-87835771D02*
X144857142Y-87883390D01*
X144857142Y-87883390D02*
X144904761Y-87931009D01*
X144904761Y-87931009D02*
X144952380Y-88026247D01*
X144952380Y-88026247D02*
X144952380Y-88264342D01*
X144952380Y-88264342D02*
X144904761Y-88359580D01*
X144904761Y-88359580D02*
X144857142Y-88407200D01*
X144857142Y-88407200D02*
X144761904Y-88454819D01*
X144761904Y-88454819D02*
X144523809Y-88454819D01*
X144523809Y-88454819D02*
X144428571Y-88407200D01*
X144428571Y-88407200D02*
X144380952Y-88359580D01*
X145857142Y-87454819D02*
X145380952Y-87454819D01*
X145380952Y-87454819D02*
X145333333Y-87931009D01*
X145333333Y-87931009D02*
X145380952Y-87883390D01*
X145380952Y-87883390D02*
X145476190Y-87835771D01*
X145476190Y-87835771D02*
X145714285Y-87835771D01*
X145714285Y-87835771D02*
X145809523Y-87883390D01*
X145809523Y-87883390D02*
X145857142Y-87931009D01*
X145857142Y-87931009D02*
X145904761Y-88026247D01*
X145904761Y-88026247D02*
X145904761Y-88264342D01*
X145904761Y-88264342D02*
X145857142Y-88359580D01*
X145857142Y-88359580D02*
X145809523Y-88407200D01*
X145809523Y-88407200D02*
X145714285Y-88454819D01*
X145714285Y-88454819D02*
X145476190Y-88454819D01*
X145476190Y-88454819D02*
X145380952Y-88407200D01*
X145380952Y-88407200D02*
X145333333Y-88359580D01*
X146809523Y-87454819D02*
X146333333Y-87454819D01*
X146333333Y-87454819D02*
X146285714Y-87931009D01*
X146285714Y-87931009D02*
X146333333Y-87883390D01*
X146333333Y-87883390D02*
X146428571Y-87835771D01*
X146428571Y-87835771D02*
X146666666Y-87835771D01*
X146666666Y-87835771D02*
X146761904Y-87883390D01*
X146761904Y-87883390D02*
X146809523Y-87931009D01*
X146809523Y-87931009D02*
X146857142Y-88026247D01*
X146857142Y-88026247D02*
X146857142Y-88264342D01*
X146857142Y-88264342D02*
X146809523Y-88359580D01*
X146809523Y-88359580D02*
X146761904Y-88407200D01*
X146761904Y-88407200D02*
X146666666Y-88454819D01*
X146666666Y-88454819D02*
X146428571Y-88454819D01*
X146428571Y-88454819D02*
X146333333Y-88407200D01*
X146333333Y-88407200D02*
X146285714Y-88359580D01*
X150000000Y-105454819D02*
X150190476Y-105454819D01*
X150190476Y-105454819D02*
X150285714Y-105502438D01*
X150285714Y-105502438D02*
X150380952Y-105597676D01*
X150380952Y-105597676D02*
X150428571Y-105788152D01*
X150428571Y-105788152D02*
X150428571Y-106121485D01*
X150428571Y-106121485D02*
X150380952Y-106311961D01*
X150380952Y-106311961D02*
X150285714Y-106407200D01*
X150285714Y-106407200D02*
X150190476Y-106454819D01*
X150190476Y-106454819D02*
X150000000Y-106454819D01*
X150000000Y-106454819D02*
X149904762Y-106407200D01*
X149904762Y-106407200D02*
X149809524Y-106311961D01*
X149809524Y-106311961D02*
X149761905Y-106121485D01*
X149761905Y-106121485D02*
X149761905Y-105788152D01*
X149761905Y-105788152D02*
X149809524Y-105597676D01*
X149809524Y-105597676D02*
X149904762Y-105502438D01*
X149904762Y-105502438D02*
X150000000Y-105454819D01*
X150857143Y-105454819D02*
X150857143Y-106264342D01*
X150857143Y-106264342D02*
X150904762Y-106359580D01*
X150904762Y-106359580D02*
X150952381Y-106407200D01*
X150952381Y-106407200D02*
X151047619Y-106454819D01*
X151047619Y-106454819D02*
X151238095Y-106454819D01*
X151238095Y-106454819D02*
X151333333Y-106407200D01*
X151333333Y-106407200D02*
X151380952Y-106359580D01*
X151380952Y-106359580D02*
X151428571Y-106264342D01*
X151428571Y-106264342D02*
X151428571Y-105454819D01*
X151761905Y-105454819D02*
X152333333Y-105454819D01*
X152047619Y-106454819D02*
X152047619Y-105454819D01*
X128073866Y-97071428D02*
X128073866Y-96309524D01*
X128454819Y-96690476D02*
X127692914Y-96690476D01*
X127931009Y-94738095D02*
X127978628Y-94595238D01*
X127978628Y-94595238D02*
X128026247Y-94547619D01*
X128026247Y-94547619D02*
X128121485Y-94500000D01*
X128121485Y-94500000D02*
X128264342Y-94500000D01*
X128264342Y-94500000D02*
X128359580Y-94547619D01*
X128359580Y-94547619D02*
X128407200Y-94595238D01*
X128407200Y-94595238D02*
X128454819Y-94690476D01*
X128454819Y-94690476D02*
X128454819Y-95071428D01*
X128454819Y-95071428D02*
X127454819Y-95071428D01*
X127454819Y-95071428D02*
X127454819Y-94738095D01*
X127454819Y-94738095D02*
X127502438Y-94642857D01*
X127502438Y-94642857D02*
X127550057Y-94595238D01*
X127550057Y-94595238D02*
X127645295Y-94547619D01*
X127645295Y-94547619D02*
X127740533Y-94547619D01*
X127740533Y-94547619D02*
X127835771Y-94595238D01*
X127835771Y-94595238D02*
X127883390Y-94642857D01*
X127883390Y-94642857D02*
X127931009Y-94738095D01*
X127931009Y-94738095D02*
X127931009Y-95071428D01*
X128169104Y-94119047D02*
X128169104Y-93642857D01*
X128454819Y-94214285D02*
X127454819Y-93880952D01*
X127454819Y-93880952D02*
X128454819Y-93547619D01*
X127454819Y-93357142D02*
X127454819Y-92785714D01*
X128454819Y-93071428D02*
X127454819Y-93071428D01*
X128073866Y-91690475D02*
X128073866Y-90928571D01*
X139491905Y-106073866D02*
X140253810Y-106073866D01*
X139872857Y-106454819D02*
X139872857Y-105692914D01*
X141825238Y-105931009D02*
X141968095Y-105978628D01*
X141968095Y-105978628D02*
X142015714Y-106026247D01*
X142015714Y-106026247D02*
X142063333Y-106121485D01*
X142063333Y-106121485D02*
X142063333Y-106264342D01*
X142063333Y-106264342D02*
X142015714Y-106359580D01*
X142015714Y-106359580D02*
X141968095Y-106407200D01*
X141968095Y-106407200D02*
X141872857Y-106454819D01*
X141872857Y-106454819D02*
X141491905Y-106454819D01*
X141491905Y-106454819D02*
X141491905Y-105454819D01*
X141491905Y-105454819D02*
X141825238Y-105454819D01*
X141825238Y-105454819D02*
X141920476Y-105502438D01*
X141920476Y-105502438D02*
X141968095Y-105550057D01*
X141968095Y-105550057D02*
X142015714Y-105645295D01*
X142015714Y-105645295D02*
X142015714Y-105740533D01*
X142015714Y-105740533D02*
X141968095Y-105835771D01*
X141968095Y-105835771D02*
X141920476Y-105883390D01*
X141920476Y-105883390D02*
X141825238Y-105931009D01*
X141825238Y-105931009D02*
X141491905Y-105931009D01*
X142491905Y-105454819D02*
X142491905Y-106264342D01*
X142491905Y-106264342D02*
X142539524Y-106359580D01*
X142539524Y-106359580D02*
X142587143Y-106407200D01*
X142587143Y-106407200D02*
X142682381Y-106454819D01*
X142682381Y-106454819D02*
X142872857Y-106454819D01*
X142872857Y-106454819D02*
X142968095Y-106407200D01*
X142968095Y-106407200D02*
X143015714Y-106359580D01*
X143015714Y-106359580D02*
X143063333Y-106264342D01*
X143063333Y-106264342D02*
X143063333Y-105454819D01*
X143444286Y-105454819D02*
X144110952Y-105454819D01*
X144110952Y-105454819D02*
X143444286Y-106454819D01*
X143444286Y-106454819D02*
X144110952Y-106454819D01*
X144396667Y-105454819D02*
X145063333Y-105454819D01*
X145063333Y-105454819D02*
X144396667Y-106454819D01*
X144396667Y-106454819D02*
X145063333Y-106454819D01*
X146206191Y-106073866D02*
X146968096Y-106073866D01*
D12*
%TO.C,G\u002A\u002A\u002A*%
G36*
X129197269Y-83007007D02*
G01*
X129200158Y-83088918D01*
X129204230Y-83146142D01*
X129210261Y-83183995D01*
X129219023Y-83207792D01*
X129228263Y-83220028D01*
X129255372Y-83237344D01*
X129289330Y-83233741D01*
X129295776Y-83231612D01*
X129335461Y-83207678D01*
X129363475Y-83165616D01*
X129380930Y-83102284D01*
X129388939Y-83014541D01*
X129389757Y-82966243D01*
X129389781Y-82819964D01*
X129464795Y-82819964D01*
X129539810Y-82819964D01*
X129539810Y-83082515D01*
X129539810Y-83345067D01*
X129479798Y-83345067D01*
X129419787Y-83345067D01*
X129419239Y-83258800D01*
X129418691Y-83172533D01*
X129381727Y-83248892D01*
X129351313Y-83299817D01*
X129318990Y-83334851D01*
X129306554Y-83342661D01*
X129249076Y-83356968D01*
X129184251Y-83356346D01*
X129142232Y-83345887D01*
X129101041Y-83320381D01*
X129070288Y-83279935D01*
X129048933Y-83221240D01*
X129035935Y-83140992D01*
X129030252Y-83035881D01*
X129029793Y-82988747D01*
X129029710Y-82819964D01*
X129111002Y-82819964D01*
X129192295Y-82819964D01*
X129197269Y-83007007D01*
G37*
G36*
X130567325Y-82813482D02*
G01*
X130630623Y-82841532D01*
X130649315Y-82856787D01*
X130669743Y-82877849D01*
X130684780Y-82899428D01*
X130695587Y-82926696D01*
X130703327Y-82964824D01*
X130709164Y-83018984D01*
X130714260Y-83094347D01*
X130717995Y-83162211D01*
X130727787Y-83346926D01*
X130662653Y-83342246D01*
X130621980Y-83337805D01*
X130602361Y-83327008D01*
X130594882Y-83301970D01*
X130592811Y-83280453D01*
X130588104Y-83223340D01*
X130532426Y-83286081D01*
X130495688Y-83323739D01*
X130463528Y-83343611D01*
X130423165Y-83352384D01*
X130402107Y-83354267D01*
X130351245Y-83354219D01*
X130308172Y-83347847D01*
X130294776Y-83343071D01*
X130258313Y-83308675D01*
X130236645Y-83254007D01*
X130232642Y-83186329D01*
X130232676Y-83185906D01*
X130235484Y-83169707D01*
X130382642Y-83169707D01*
X130386334Y-83218865D01*
X130409148Y-83246375D01*
X130448192Y-83250979D01*
X130500578Y-83231421D01*
X130510849Y-83225453D01*
X130542510Y-83197781D01*
X130565978Y-83162720D01*
X130576229Y-83129854D01*
X130570891Y-83110899D01*
X130553051Y-83108670D01*
X130514713Y-83110799D01*
X130475321Y-83115366D01*
X130425959Y-83123355D01*
X130398978Y-83132740D01*
X130386900Y-83147905D01*
X130382642Y-83169707D01*
X130235484Y-83169707D01*
X130239310Y-83147634D01*
X130256615Y-83121861D01*
X130292591Y-83097630D01*
X130300213Y-83093384D01*
X130351550Y-83071093D01*
X130415052Y-83051398D01*
X130453400Y-83042935D01*
X130518939Y-83027269D01*
X130557319Y-83007085D01*
X130571284Y-82980310D01*
X130567985Y-82956478D01*
X130545118Y-82927302D01*
X130506489Y-82913710D01*
X130461727Y-82915298D01*
X130420460Y-82931661D01*
X130392317Y-82962392D01*
X130391609Y-82963895D01*
X130375493Y-82989790D01*
X130353412Y-82998476D01*
X130316844Y-82991638D01*
X130292197Y-82983529D01*
X130255215Y-82962845D01*
X130247429Y-82935960D01*
X130268578Y-82901586D01*
X130274332Y-82895601D01*
X130338951Y-82847434D01*
X130414189Y-82817188D01*
X130492747Y-82805619D01*
X130567325Y-82813482D01*
G37*
G36*
X131571472Y-82813889D02*
G01*
X131612365Y-82819953D01*
X131644361Y-82833331D01*
X131674470Y-82854006D01*
X131698003Y-82873219D01*
X131715351Y-82892957D01*
X131727722Y-82918159D01*
X131736321Y-82953761D01*
X131742356Y-83004700D01*
X131747033Y-83075913D01*
X131751403Y-83168782D01*
X131759147Y-83345067D01*
X131684682Y-83345067D01*
X131610218Y-83345067D01*
X131610218Y-83285055D01*
X131606831Y-83241751D01*
X131596686Y-83227679D01*
X131579803Y-83242844D01*
X131560566Y-83277895D01*
X131523529Y-83323938D01*
X131469975Y-83352844D01*
X131408864Y-83363041D01*
X131349156Y-83352958D01*
X131301975Y-83323245D01*
X131277477Y-83290710D01*
X131266764Y-83250182D01*
X131265150Y-83213338D01*
X131269874Y-83168418D01*
X131402328Y-83168418D01*
X131403639Y-83205784D01*
X131421712Y-83235596D01*
X131426432Y-83238845D01*
X131470942Y-83253474D01*
X131513171Y-83241341D01*
X131551688Y-83208454D01*
X131579110Y-83172592D01*
X131594201Y-83140209D01*
X131595215Y-83132922D01*
X131592263Y-83116447D01*
X131578568Y-83109539D01*
X131546875Y-83110454D01*
X131516449Y-83114001D01*
X131468088Y-83122396D01*
X131430931Y-83132863D01*
X131418930Y-83138859D01*
X131402328Y-83168418D01*
X131269874Y-83168418D01*
X131270988Y-83157826D01*
X131291340Y-83116977D01*
X131330466Y-83086976D01*
X131392625Y-83064007D01*
X131445990Y-83051334D01*
X131523880Y-83031901D01*
X131573123Y-83011374D01*
X131595081Y-82988455D01*
X131591112Y-82961843D01*
X131567778Y-82934811D01*
X131524414Y-82912331D01*
X131477234Y-82919390D01*
X131426998Y-82955869D01*
X131426313Y-82956552D01*
X131395226Y-82985096D01*
X131370885Y-82995296D01*
X131339750Y-82990919D01*
X131321570Y-82985693D01*
X131263398Y-82968264D01*
X131290529Y-82921937D01*
X131330009Y-82867878D01*
X131376742Y-82834036D01*
X131438027Y-82816789D01*
X131511159Y-82812462D01*
X131571472Y-82813889D01*
G37*
G36*
X131999937Y-82748700D02*
G01*
X131997901Y-82812380D01*
X131992930Y-82872450D01*
X131986537Y-82913626D01*
X131980980Y-82948415D01*
X131984389Y-82962193D01*
X131986895Y-82961501D01*
X131998508Y-82941098D01*
X132000295Y-82926906D01*
X132013438Y-82891974D01*
X132047267Y-82856383D01*
X132093380Y-82826842D01*
X132143374Y-82810057D01*
X132147426Y-82809448D01*
X132187992Y-82807440D01*
X132222634Y-82816865D01*
X132263905Y-82841697D01*
X132275757Y-82850078D01*
X132316759Y-82881362D01*
X132342418Y-82909050D01*
X132358540Y-82942935D01*
X132370932Y-82992809D01*
X132376125Y-83019322D01*
X132381240Y-83115534D01*
X132361000Y-83206399D01*
X132317158Y-83284655D01*
X132309912Y-83293413D01*
X132277339Y-83327156D01*
X132246623Y-83344890D01*
X132204691Y-83352756D01*
X132179577Y-83354658D01*
X132127029Y-83354547D01*
X132082380Y-83348717D01*
X132065125Y-83343073D01*
X132035107Y-83316528D01*
X132017772Y-83286990D01*
X131998040Y-83235375D01*
X131986003Y-83210904D01*
X131979273Y-83212459D01*
X131975465Y-83238922D01*
X131973589Y-83266302D01*
X131968720Y-83345067D01*
X131901991Y-83345067D01*
X131835262Y-83345067D01*
X131835262Y-83085416D01*
X132007796Y-83085416D01*
X132009225Y-83140495D01*
X132015300Y-83174865D01*
X132028702Y-83197760D01*
X132044743Y-83212603D01*
X132092203Y-83233676D01*
X132143686Y-83229613D01*
X132189211Y-83201817D01*
X132198750Y-83190991D01*
X132218318Y-83145197D01*
X132225005Y-83080788D01*
X132216099Y-83008065D01*
X132189513Y-82957034D01*
X132146525Y-82929491D01*
X132114053Y-82924984D01*
X132064428Y-82933871D01*
X132031408Y-82962386D01*
X132013149Y-83013313D01*
X132007796Y-83085416D01*
X131835262Y-83085416D01*
X131835262Y-82992498D01*
X131835262Y-82639928D01*
X131917778Y-82639928D01*
X132000295Y-82639928D01*
X131999937Y-82748700D01*
G37*
G36*
X132712815Y-82807782D02*
G01*
X132794424Y-82832091D01*
X132866890Y-82878175D01*
X132875061Y-82885554D01*
X132902981Y-82917247D01*
X132905083Y-82939788D01*
X132879862Y-82958054D01*
X132849140Y-82969604D01*
X132812197Y-82978579D01*
X132786462Y-82971392D01*
X132760013Y-82948194D01*
X132721445Y-82922173D01*
X132677280Y-82910101D01*
X132635129Y-82911268D01*
X132602602Y-82924960D01*
X132587312Y-82950468D01*
X132587813Y-82964290D01*
X132595929Y-82980439D01*
X132616635Y-82995216D01*
X132654430Y-83010546D01*
X132713809Y-83028356D01*
X132774739Y-83044379D01*
X132846288Y-83070392D01*
X132891442Y-83106618D01*
X132912848Y-83155732D01*
X132915475Y-83186602D01*
X132903515Y-83255719D01*
X132867553Y-83307121D01*
X132807467Y-83340895D01*
X132723132Y-83357125D01*
X132667926Y-83358633D01*
X132612822Y-83355087D01*
X132562122Y-83347646D01*
X132546682Y-83343941D01*
X132487758Y-83312816D01*
X132449891Y-83260906D01*
X132443711Y-83244005D01*
X132441558Y-83219555D01*
X132457436Y-83200995D01*
X132486513Y-83185171D01*
X132521565Y-83169921D01*
X132542085Y-83169787D01*
X132560509Y-83186722D01*
X132569711Y-83198247D01*
X132613815Y-83232369D01*
X132671818Y-83248547D01*
X132731625Y-83243832D01*
X132742181Y-83240335D01*
X132774590Y-83220275D01*
X132779868Y-83197086D01*
X132760427Y-83172898D01*
X132718678Y-83149843D01*
X132657031Y-83130051D01*
X132605661Y-83119656D01*
X132531860Y-83100916D01*
X132483641Y-83071075D01*
X132457621Y-83026876D01*
X132450383Y-82969993D01*
X132455128Y-82917275D01*
X132471957Y-82881740D01*
X132484140Y-82868587D01*
X132550572Y-82825722D01*
X132629164Y-82805556D01*
X132712815Y-82807782D01*
G37*
G36*
X128939692Y-82992498D02*
G01*
X128939692Y-83345067D01*
X128864677Y-83345067D01*
X128789662Y-83345067D01*
X128789662Y-82992498D01*
X128789662Y-82639928D01*
X128864677Y-82639928D01*
X128939692Y-82639928D01*
X128939692Y-82992498D01*
G37*
G36*
X130032593Y-82818881D02*
G01*
X130093571Y-82856980D01*
X130100495Y-82863601D01*
X130147430Y-82910513D01*
X130152587Y-83127790D01*
X130157745Y-83345067D01*
X130082580Y-83345067D01*
X130007415Y-83345067D01*
X130002407Y-83166560D01*
X129999488Y-83087345D01*
X129995338Y-83032293D01*
X129989024Y-82995561D01*
X129979610Y-82971308D01*
X129968820Y-82956518D01*
X129928251Y-82929251D01*
X129884412Y-82931223D01*
X129840078Y-82962283D01*
X129838805Y-82963625D01*
X129822890Y-82982939D01*
X129812108Y-83004908D01*
X129805183Y-83035940D01*
X129800843Y-83082444D01*
X129797815Y-83150828D01*
X129797063Y-83173666D01*
X129791622Y-83345067D01*
X129718226Y-83345067D01*
X129644831Y-83345067D01*
X129644831Y-83082515D01*
X129644831Y-82819964D01*
X129704843Y-82819964D01*
X129764854Y-82819964D01*
X129765518Y-82898729D01*
X129766181Y-82977495D01*
X129796209Y-82920596D01*
X129842624Y-82859215D01*
X129901344Y-82821081D01*
X129966592Y-82807276D01*
X130032593Y-82818881D01*
G37*
G36*
X131175132Y-82992498D02*
G01*
X131175132Y-83345067D01*
X131100117Y-83345067D01*
X131025103Y-83345067D01*
X131025103Y-82992498D01*
X131025103Y-82639928D01*
X131100117Y-82639928D01*
X131175132Y-82639928D01*
X131175132Y-82992498D01*
G37*
G36*
X128405510Y-82728316D02*
G01*
X128477549Y-82765138D01*
X128534529Y-82820907D01*
X128573443Y-82890793D01*
X128591285Y-82969963D01*
X128585047Y-83053588D01*
X128566313Y-83108802D01*
X128519008Y-83184666D01*
X128456704Y-83235033D01*
X128376956Y-83261558D01*
X128334022Y-83266195D01*
X128257923Y-83264667D01*
X128201446Y-83250017D01*
X128192885Y-83245965D01*
X128127388Y-83197023D01*
X128076534Y-83128628D01*
X128045949Y-83049925D01*
X128040056Y-83000607D01*
X128270817Y-83000607D01*
X128276684Y-83072683D01*
X128280930Y-83105020D01*
X128290186Y-83165822D01*
X128297803Y-83200576D01*
X128305111Y-83213094D01*
X128313437Y-83207187D01*
X128315432Y-83203974D01*
X128335853Y-83174189D01*
X128365594Y-83136202D01*
X128373218Y-83127107D01*
X128410127Y-83092858D01*
X128460926Y-83056550D01*
X128495890Y-83036126D01*
X128577416Y-82993441D01*
X128507255Y-82954642D01*
X128445540Y-82919658D01*
X128403930Y-82892848D01*
X128375820Y-82868713D01*
X128354605Y-82841754D01*
X128337512Y-82813311D01*
X128303181Y-82752450D01*
X128283124Y-82864973D01*
X128272917Y-82936467D01*
X128270817Y-83000607D01*
X128040056Y-83000607D01*
X128039598Y-82996773D01*
X128045922Y-82957451D01*
X128061981Y-82904721D01*
X128083134Y-82851197D01*
X128104739Y-82809494D01*
X128112343Y-82799091D01*
X128157508Y-82763708D01*
X128220245Y-82734993D01*
X128288169Y-82717910D01*
X128321418Y-82715273D01*
X128405510Y-82728316D01*
G37*
%TO.C,+ 100uF -*%
D13*
X138120000Y-104750000D02*
G75*
G02*
X129880000Y-104750000I-4120000J0D01*
G01*
X129880000Y-104750000D02*
G75*
G02*
X138120000Y-104750000I4120000J0D01*
G01*
%TO.C,10K*%
X152000000Y-98080000D02*
X152000000Y-94770000D01*
X152000000Y-84920000D02*
X152000000Y-88230000D01*
X150630000Y-88230000D02*
X153370000Y-88230000D01*
X153370000Y-94770000D01*
X150630000Y-94770000D01*
X150630000Y-88230000D01*
%TO.C,1K*%
X133920000Y-85500000D02*
X137230000Y-85500000D01*
X147080000Y-85500000D02*
X143770000Y-85500000D01*
X137230000Y-84130000D02*
X143770000Y-84130000D01*
X143770000Y-86870000D01*
X137230000Y-86870000D01*
X137230000Y-84130000D01*
%TO.C,1nF*%
X132880000Y-98620000D02*
X132880000Y-89380000D01*
X134320000Y-98620000D02*
X132880000Y-98620000D01*
X138120000Y-98620000D02*
X136680000Y-98620000D01*
X132880000Y-89380000D02*
X134320000Y-89380000D01*
X136680000Y-89380000D02*
X138120000Y-89380000D01*
X138120000Y-89380000D02*
X138120000Y-98620000D01*
%TO.C,IC 555*%
X145500000Y-89360000D02*
G75*
G02*
X143500000Y-89360000I-1000000J0D01*
G01*
X147150000Y-99640000D02*
X147150000Y-89360000D01*
X147150000Y-89360000D02*
X145500000Y-89360000D01*
X143500000Y-89360000D02*
X141850000Y-89360000D01*
X141850000Y-99640000D02*
X147150000Y-99640000D01*
X141850000Y-89360000D02*
X141850000Y-99640000D01*
%TO.C,OUT*%
X151000000Y-104330000D02*
X148400000Y-104330000D01*
X153600000Y-104330000D02*
X152270000Y-104330000D01*
X153600000Y-103000000D02*
X153600000Y-104330000D01*
X148400000Y-101670000D02*
X148400000Y-104330000D01*
X151000000Y-101670000D02*
X151000000Y-104330000D01*
X151000000Y-101670000D02*
X148400000Y-101670000D01*
%TO.C,+ BAT -*%
X131830000Y-94000000D02*
X131830000Y-96600000D01*
X131830000Y-91400000D02*
X131830000Y-92730000D01*
X130500000Y-91400000D02*
X131830000Y-91400000D01*
X129170000Y-96600000D02*
X131830000Y-96600000D01*
X129170000Y-94000000D02*
X131830000Y-94000000D01*
X129170000Y-94000000D02*
X129170000Y-96600000D01*
%TO.C,+ BUZZ -*%
X143230000Y-101670000D02*
X145830000Y-101670000D01*
X140630000Y-101670000D02*
X141960000Y-101670000D01*
X140630000Y-103000000D02*
X140630000Y-101670000D01*
X145830000Y-104330000D02*
X145830000Y-101670000D01*
X143230000Y-104330000D02*
X143230000Y-101670000D01*
X143230000Y-104330000D02*
X145830000Y-104330000D01*
%TD*%
M02*
